<svg xmlns="http://www.w3.org/2000/svg" width="100" height="100" viewBox="0 0 100 100">
  <g id="favicon" transform="translate(-2046 601)">
    <rect id="Rectangle_491" data-name="Rectangle 491" width="100" height="100" transform="translate(2046 -601)" fill="none"/>
    <g id="Group_380" data-name="Group 380" transform="translate(2079 -642)">
      <path id="Path_36" data-name="Path 36" d="M21.915,30.115,28.3,31.459l-.335,2.688,6.551,1.176L41.4,1.557S28.631-3.484,21.915,4.579v9.743h.67C26.111,6.764,33,8.948,33,8.948L29.472,25.411,21.915,23.9Zm-2.352-21.5S5.787,8.444,2.259,26.419l19.656,3.7V23.9L10.826,21.714c1.511-6.551,8.9-7.392,11.088-7.392V4.579a14.926,14.926,0,0,0-2.352,4.032" transform="translate(-19.745 40.999)" fill="#ebb700" fill-rule="evenodd"/>
      <path id="Path_37" data-name="Path 37" d="M27.217,49.622l-.672,2.52L15.792,49.958v6.384L25.2,58.357,22.177,74.821a9.166,9.166,0,0,1-6.384-4.367V81.372A24.394,24.394,0,0,0,27.217,84.9l6.551-34.1Zm-11.425.336L.672,46.934c-3.7,17.975,9.073,23.015,9.073,23.015a12.838,12.838,0,0,0,6.047,11.423V70.454a11.253,11.253,0,0,1-1.176-4.537S5.042,62.39,6.386,54.493l9.406,1.848Z" transform="translate(-19 25.524)" fill="#5ca13c" fill-rule="evenodd"/>
      <path id="Path_38" data-name="Path 38" d="M82.091,18.858A13.039,13.039,0,0,0,75.875,7.267V18.691a9.847,9.847,0,0,1,1.007,4.367s9.575,3.528,8.233,11.256l-9.24-1.848v6.216l15.287,3.192c3.7-17.975-9.071-23.016-9.071-23.016M75.875,7.267A26.636,26.636,0,0,0,64.451,4.075L57.9,38.01l6.719,1.512.672-2.857,10.584,2.017V32.466l-9.409-1.848,2.855-16.464a8.647,8.647,0,0,1,6.553,4.536Z" transform="translate(-38.092 39.656)" fill="#cf3717" fill-rule="evenodd"/>
      <path id="Path_39" data-name="Path 39" d="M67.528,85.279a11.3,11.3,0,0,0,2.183-3.7s13.777.168,17.135-17.975l-19.318-3.7V66.3l11.088,2.183c-1.344,6.384-8.567,7.223-11.088,7.392ZM60.809,58.736l.5-2.52L54.593,54.7l-6.72,33.935s13.1,5.04,19.655-3.36V75.871h-.838c-3.361,7.56-10.249,5.376-10.249,5.376L59.8,64.783,67.528,66.3V59.912Z" transform="translate(-34.785 22.962)" fill="#005a9f" fill-rule="evenodd"/>
      <path id="Path_40" data-name="Path 40" d="M1,110.974s9.912-2.52,14.783,8.4c0,0,3.53,5.88,4.2,11.423,0,0-5.713-1.68-9.744-9.743,0,0-3.527-6.888-9.241-10.079" transform="translate(-19.331 4.491)" fill="#908c86" fill-rule="evenodd"/>
      <path id="Path_41" data-name="Path 41" d="M41.145,107.086s-10.752,11.088-5.715,19.823c0,0,2.353,1.681,4.2-1.847,0,0-3.864,0-2.52-4.871a42.688,42.688,0,0,1,4.033-13.1" transform="translate(-30.24 5.69)" fill="#908c86" fill-rule="evenodd"/>
      <path id="Path_42" data-name="Path 42" d="M35.343,140.958S52.812,117.1,73.812,126.342c0,0-12.6,3.865-15.96,5.881,0,0-11.591,8.736-22.51,8.736" transform="translate(-30.654 0.042)" fill="#908c86" fill-rule="evenodd"/>
    </g>
  </g>
</svg>
