<svg xmlns="http://www.w3.org/2000/svg" xmlns:xlink="http://www.w3.org/1999/xlink" width="30" height="30" viewBox="0 0 30 30">
  <defs>
    <clipPath id="clip-path">
      <rect id="Rectangle_16" data-name="Rectangle 16" width="27.354" height="30" fill="none"/>
    </clipPath>
  </defs>
  <g id="ic-binoculars" transform="translate(-1941 -339)">
    <g id="Group_382" data-name="Group 382" transform="translate(1942 339)">
      <g id="Group_19" data-name="Group 19" transform="translate(0 0)" clip-path="url(#clip-path)">
        <path id="Path_63" data-name="Path 63" d="M8,13.074V14.6a2.931,2.931,0,0,0,2.931,2.931h5.862A2.931,2.931,0,0,0,19.723,14.6V13.074Z" transform="translate(7.631 12.472)" fill="#ffbf6b"/>
        <path id="Path_64" data-name="Path 64" d="M0,14.6a2.932,2.932,0,0,0,2.931,2.931H8.792A2.932,2.932,0,0,0,11.723,14.6V13.075H0Z" transform="translate(0 12.473)" fill="#ffbf6b"/>
        <path id="Path_65" data-name="Path 65" d="M11.723,20.516a.976.976,0,0,0-.285-.692L9.769,18.157V16.608a.977.977,0,0,1,.977-.977h5.862a.977.977,0,0,1,.977.977v1.549l-1.669,1.667a.976.976,0,0,0-.285.692v4.34H27.354v-12.9a2.932,2.932,0,0,0-1.62-2.622l-1.749-.873a.979.979,0,0,1-.539-.873V2.931A2.932,2.932,0,0,0,20.516,0H18.562a2.932,2.932,0,0,0-2.931,2.931V7.816H11.723V2.931A2.932,2.932,0,0,0,8.792,0H6.839A2.932,2.932,0,0,0,3.908,2.931V7.585a.979.979,0,0,1-.539.873l-1.747.873A2.931,2.931,0,0,0,0,11.954v12.9H11.723ZM17.585,2.931a.977.977,0,0,1,.977-.977h1.954a.977.977,0,0,1,.977.977v.977H17.585Zm-11.723,0a.977.977,0,0,1,.977-.977H8.792a.977.977,0,0,1,.977.977v.977H5.862ZM9.769,23.447H1.954V11.954a.979.979,0,0,1,.539-.873l1.747-.873A2.928,2.928,0,0,0,5.862,7.585V5.862H9.769V8.792a.977.977,0,0,0,.977.977h5.862a.977.977,0,0,0,.977-.977V5.862h3.908V7.585a2.932,2.932,0,0,0,1.62,2.622l1.749.873a.979.979,0,0,1,.539.873V23.447H17.585V20.92l1.669-1.667a.976.976,0,0,0,.285-.692V16.608a2.932,2.932,0,0,0-2.931-2.931H10.746a2.932,2.932,0,0,0-2.931,2.931v1.954a.976.976,0,0,0,.285.692L9.769,20.92Z" transform="translate(0 0.001)" fill="#70b4e8"/>
      </g>
    </g>
    <rect id="Rectangle_494" data-name="Rectangle 494" width="30" height="30" transform="translate(1941 339)" fill="none"/>
  </g>
</svg>
