<svg xmlns="http://www.w3.org/2000/svg" xmlns:xlink="http://www.w3.org/1999/xlink" width="72" height="72" viewBox="0 0 72 72">
  <defs>
    <clipPath id="clip-path">
      <rect id="Rectangle_498" data-name="Rectangle 498" width="64.332" height="56.358" fill="#fff"/>
    </clipPath>
  </defs>
  <g id="ic-building-safe" transform="translate(-3749 -1499)">
    <g id="Group_385" data-name="Group 385" transform="translate(3753 1507)">
      <g id="Group_383" data-name="Group 383" transform="translate(0 0)" clip-path="url(#clip-path)">
        <path id="Path_709" data-name="Path 709" d="M30.294,12.117V0H0V54.529H43.253a13.285,13.285,0,0,1-1.381-1.012,19.3,19.3,0,0,1-3.078-3.62,12.079,12.079,0,0,1-.745-1.427H30.294V42.411h6.059V36.352H30.294V30.294h6.059V24.235H30.294V18.176H54.529v10.93a3.22,3.22,0,0,1,.948.291c.548.282,1.1.551,1.66.8.106.048.215.094.321.142.376.009.754.018,1.133,0h.024c.242-.015.485-.033.727-.058.061-.006.124-.015.188-.021l.094-.015c.321-.064.642-.133.963-.2V12.117ZM12.117,48.47H6.059V42.411h6.059Zm0-12.117H6.059V30.294h6.059Zm0-12.117H6.059V18.176h6.059Zm0-12.117H6.059V6.059h6.059ZM24.235,48.47H18.176V42.411h6.059Zm0-12.117H18.176V30.294h6.059Zm0-12.117H18.176V18.176h6.059Zm0-12.117H18.176V6.059h6.059Z" transform="translate(0 0.001)" fill="#fff"/>
        <path id="Path_710" data-name="Path 710" d="M38.823,12.7a10.149,10.149,0,0,1-7.84-.024c-1.327-.551-4.123-1.9-5.08-3.278-.954,1.375-3.75,2.726-5.077,3.278a10.149,10.149,0,0,1-7.84.024.584.584,0,0,0-.821.542c0,23.041,13.738,24.05,13.738,24.05s13.741-1.009,13.741-24.05a.584.584,0,0,0-.821-.542M16.815,16.224a13.175,13.175,0,0,0,5.065-1.009A22.769,22.769,0,0,0,25.9,13.077a22.882,22.882,0,0,0,4.026,2.139,13.175,13.175,0,0,0,5.065,1.009,12.536,12.536,0,0,0,1.821-.13c-.9,15.98-9.34,18.155-10.912,18.422-1.569-.267-10.006-2.442-10.909-18.422a12.536,12.536,0,0,0,1.821.13" transform="translate(24.687 19.069)" fill="#fff"/>
        <path id="Path_711" data-name="Path 711" d="M21.98,27.059c1.63-.473,6.519-2.717,7.882-12.763a15.978,15.978,0,0,1-4.911-1.172,28.258,28.258,0,0,1-2.972-1.445,27.971,27.971,0,0,1-2.972,1.445A15.958,15.958,0,0,1,14.1,14.3c1.363,10.045,6.253,12.29,7.882,12.763" transform="translate(28.61 23.702)" fill="#fff"/>
        <rect id="Rectangle_497" data-name="Rectangle 497" width="6.059" height="6.059" transform="translate(40.681 24.235)" fill="#fff"/>
      </g>
    </g>
    <rect id="Rectangle_503" data-name="Rectangle 503" width="72" height="72" transform="translate(3749 1499)" fill="none"/>
  </g>
</svg>
