<svg xmlns="http://www.w3.org/2000/svg" width="72" height="72" viewBox="0 0 72 72">
  <g id="ic-basic-info" transform="translate(-2747 -1500)">
    <g id="Group_386" data-name="Group 386" transform="translate(18 -3.607)">
      <g id="辞書のフリー素材2" transform="translate(2732 1507)">
        <path id="Path_697" data-name="Path 697" d="M259.038,190.231a3.547,3.547,0,0,0-2.184-2.574l-3.914-1.521v4.024l.741.288a1.064,1.064,0,0,1,.366,1.743L228.933,217.3a1.775,1.775,0,0,1-1.895.4l-5.582-2.171v4.024l3.918,1.524a6.025,6.025,0,0,0,6.444-1.355l26.259-26.258A3.544,3.544,0,0,0,259.038,190.231Z" transform="translate(-192.752 -163.593)" fill="#fff"/>
        <path id="Path_698" data-name="Path 698" d="M4.007,49.473c.176-2.449.962-5.657,3.69-5.506l24.912,9.689a6.026,6.026,0,0,0,6.457-1.368L63.143,28.051a3.542,3.542,0,0,0-1.228-5.8l-24.76-9.629A6.025,6.025,0,0,0,30.7,13.991L2.806,42.066C.6,43.882,0,47.267,0,50.274s.2,6.616,3.609,8.019l-.8-.188,7.51,2.92V58.337a6.113,6.113,0,0,1,.143-1.281L5.412,55.093C3.807,54.485,3.805,52.3,4.007,49.473Z" transform="translate(0 -12.213)" fill="#fff"/>
        <path id="Path_699" data-name="Path 699" d="M105.494,338.491a2.832,2.832,0,0,0-.827,2v12.453l5.291-1.133,6.6,5.753V345.111a2.824,2.824,0,0,1,.828-2l2.109-2.11L107.6,336.381Z" transform="translate(-91.101 -294.365)" fill="#fff"/>
      </g>
      <rect id="Rectangle_499" data-name="Rectangle 499" width="65" height="65" transform="translate(2733 1506.607)" fill="none"/>
    </g>
    <rect id="Rectangle_504" data-name="Rectangle 504" width="72" height="72" transform="translate(2747 1500)" fill="none"/>
  </g>
</svg>
