<svg xmlns="http://www.w3.org/2000/svg" width="48" height="30" viewBox="0 0 48 30">
  <g id="ic-building" transform="translate(-3464 160)">
    <g id="buildings" transform="translate(3474 -160)">
      <path id="Path_46" data-name="Path 46" d="M27.681.141a.938.938,0,0,1,.444.8V29.063a.938.938,0,0,1-.938.938H21.563a.938.938,0,0,1-.938-.938V26.25H18.75v2.813a.938.938,0,0,1-.938.938H.938A.938.938,0,0,1,0,29.063V18.75a.938.938,0,0,1,.641-.889L11.25,14.325V8.437a.937.937,0,0,1,.517-.838l15-7.5a.937.937,0,0,1,.913.041M11.25,16.3,1.875,19.425v8.7H11.25Zm1.875,11.824h3.75V25.313a.938.938,0,0,1,.938-.938h3.75a.938.938,0,0,1,.938.938v2.813h3.75V2.454L13.125,9.017Z" transform="translate(0 0)" fill="#0f76bd"/>
      <path id="Path_47" data-name="Path 47" d="M2,18H3.875v1.875H2Zm3.75,0H7.625v1.875H5.75ZM2,21.75H3.875v1.875H2Zm3.75,0H7.625v1.875H5.75Zm7.5-7.5h1.875v1.875H13.25Zm3.75,0h1.875v1.875H17ZM13.25,18h1.875v1.875H13.25ZM17,18h1.875v1.875H17Zm3.75-3.75h1.875v1.875H20.75Zm0,3.75h1.875v1.875H20.75Zm-7.5-7.5h1.875v1.875H13.25Zm3.75,0h1.875v1.875H17Zm3.75,0h1.875v1.875H20.75Zm-7.5-3.75h1.875V8.625H13.25Zm3.75,0h1.875V8.625H17Zm3.75,0h1.875V8.625H20.75Zm0-3.75h1.875V4.875H20.75Z" transform="translate(1.75 2.625)" fill="#0f76bd"/>
    </g>
    <rect id="Rectangle_497" data-name="Rectangle 497" width="48" height="30" transform="translate(3464 -160)" fill="none"/>
  </g>
</svg>
