<svg xmlns="http://www.w3.org/2000/svg" width="48" height="30" viewBox="0 0 48 30">
  <g id="ic-construction" transform="translate(-2998 164)">
    <g id="ブルドーザーアイコン" transform="translate(2998 -256.992)">
      <path id="Path_49" data-name="Path 49" d="M30.522,329.643a4.112,4.112,0,1,0,4.11,4.113A4.113,4.113,0,0,0,30.522,329.643Zm0,5.557a1.445,1.445,0,1,1,1.443-1.443A1.447,1.447,0,0,1,30.522,335.2Z" transform="translate(-23.979 -214.874)" fill="#0f76bd"/>
      <path id="Path_50" data-name="Path 50" d="M24.116,96.411a4.724,4.724,0,0,0-4.54-3.419H7.172a1.817,1.817,0,0,0-1.816,1.816v11.556H4.049A4.049,4.049,0,0,0,0,110.414v7.061H.748a5.96,5.96,0,0,1,11.588,0H15.07a6.934,6.934,0,0,1,12.023-4.291V108.9a15.116,15.116,0,0,0-.588-4.174Zm-3.174,6.64-1.9,1.143,2.87,5.465H16.785L14.4,106.365H9.582V95.992h9.994a1.733,1.733,0,0,1,1.657,1.248l2.388,8.313a11.983,11.983,0,0,1,.359,1.722Z" transform="translate(0 0)" fill="#0f76bd"/>
      <path id="Path_51" data-name="Path 51" d="M188.806,308.3a5.094,5.094,0,1,0,5.091,5.1A5.1,5.1,0,0,0,188.806,308.3Zm0,6.884a1.79,1.79,0,1,1,1.788-1.788A1.792,1.792,0,0,1,188.806,315.181Z" transform="translate(-166.805 -195.493)" fill="#0f76bd"/>
      <path id="Path_52" data-name="Path 52" d="M334.393,210.921l-7.619-13.334-3.108-.238V210.6a6.074,6.074,0,0,0,6.074,6.074H341v-4.087Z" transform="translate(-293.882 -94.755)" fill="#0f76bd"/>
      <path id="Path_53" data-name="Path 53" d="M188.805,177.478l-2.686,1.849a.593.593,0,1,0,.672.977l2.686-1.85a.593.593,0,0,0-.672-.976Z" transform="translate(-168.76 -76.616)" fill="#0f76bd"/>
    </g>
    <rect id="Rectangle_495" data-name="Rectangle 495" width="48" height="30" transform="translate(2998 -164)" fill="none"/>
  </g>
</svg>
