<svg xmlns="http://www.w3.org/2000/svg" width="72.5" height="21.72" viewBox="0 0 72.5 21.72">
  <g id="ic-gotop" transform="translate(-6261 115.39)">
    <path id="Path_531" data-name="Path 531" d="M15-19.32a1.618,1.618,0,0,0-1.74-1.74H2.43A1.634,1.634,0,0,0,.69-19.32a1.568,1.568,0,0,0,1.74,1.65H6.06V-1.71A1.7,1.7,0,0,0,7.86.15,1.7,1.7,0,0,0,9.63-1.71V-17.67h3.63A1.582,1.582,0,0,0,15-19.32Zm19.11,8.43c0-5.94-2.49-10.5-8.67-10.5-5.79,0-8.73,4.68-8.73,11.16,0,5.94,2.4,10.56,8.67,10.56C31.41.33,34.11-4.71,34.11-10.89Zm-13.77-.06c0-2.85.81-5.64,1.95-6.6a5.529,5.529,0,0,1,2.55-.63c4.29,0,5.64,3.6,5.64,8.04,0,3.27-.93,5.73-1.86,6.54a4.754,4.754,0,0,1-2.64.72C21.81-2.88,20.34-6.27,20.34-10.95ZM52.5-14.1c0-4.23-2.64-6.96-7.62-6.96h-3.6c-1.77,0-2.88.84-2.88,2.73V-1.71A1.7,1.7,0,0,0,40.2.15a1.7,1.7,0,0,0,1.77-1.86V-6.87h2.58C49.56-6.87,52.5-10.17,52.5-14.1ZM41.97-10.11v-7.68h2.76c2.64,0,4.2,1.5,4.2,3.99a4.363,4.363,0,0,1-1.41,3.3,7.924,7.924,0,0,1-3.21.39Z" transform="translate(6281 -94)" fill="#fff"/>
    <path id="ic-gotop-2" data-name="ic-gotop" d="M7.5,0,15,12H0Z" transform="translate(6261 -111)" fill="#fff"/>
  </g>
</svg>
