<svg xmlns="http://www.w3.org/2000/svg" width="25.905" height="22.165" viewBox="0 0 25.905 22.165">
  <g id="ic-gotop-mobile" transform="translate(-288.773 -225.657)">
    <path id="TOP" d="M7.5-9.66a.809.809,0,0,0-.87-.87H1.215a.817.817,0,0,0-.87.87.784.784,0,0,0,.87.825H3.03v7.98a.851.851,0,0,0,.9.93.847.847,0,0,0,.885-.93v-7.98H6.63A.791.791,0,0,0,7.5-9.66Zm9.555,4.215c0-2.97-1.245-5.25-4.335-5.25-2.9,0-4.365,2.34-4.365,5.58,0,2.97,1.2,5.28,4.335,5.28C15.705.165,17.055-2.355,17.055-5.445Zm-6.885-.03a4.879,4.879,0,0,1,.975-3.3A2.764,2.764,0,0,1,12.42-9.09c2.145,0,2.82,1.8,2.82,4.02a4.812,4.812,0,0,1-.93,3.27,2.377,2.377,0,0,1-1.32.36C10.905-1.44,10.17-3.135,10.17-5.475ZM26.25-7.05c0-2.115-1.32-3.48-3.81-3.48h-1.8A1.256,1.256,0,0,0,19.2-9.165v8.31a.851.851,0,0,0,.9.93.847.847,0,0,0,.885-.93v-2.58h1.29A3.643,3.643,0,0,0,26.25-7.05ZM20.985-5.055V-8.9h1.38a1.883,1.883,0,0,1,2.1,2,2.181,2.181,0,0,1-.7,1.65,3.962,3.962,0,0,1-1.6.2Z" transform="translate(288.429 247.657)" fill="#fff"/>
    <path id="Polygon_3" data-name="Polygon 3" d="M4,0,8,6H0Z" transform="translate(297.429 225.657)" fill="#fff"/>
  </g>
</svg>
