<svg xmlns="http://www.w3.org/2000/svg" width="72" height="72" viewBox="0 0 72 72">
  <g id="ic-house-building" transform="translate(-3509 -1499)">
    <g id="手押し車アイコン" transform="translate(3511 1491.184)">
      <path id="Path_705" data-name="Path 705" d="M54.66,368.354a8.9,8.9,0,1,0,3.22,3.913A8.877,8.877,0,0,0,54.66,368.354Zm-1.755,8.736a3.51,3.51,0,0,1-1.268,1.54,3.5,3.5,0,0,1-3.312.321,3.519,3.519,0,0,1-1.54-1.269,3.5,3.5,0,0,1-.321-3.311,3.518,3.518,0,0,1,1.268-1.54,3.5,3.5,0,0,1,3.311-.322,3.5,3.5,0,0,1,1.862,4.581Z" transform="translate(-35.388 -308.873)" fill="#fff"/>
      <path id="Path_706" data-name="Path 706" d="M214.992,84.92a6.258,6.258,0,0,0-5.914,4.213l-7.806,22.6a.316.316,0,0,1-.152.18L178.71,123.8l2.232,4.21,11.238-5.962,3.751,7.5a2.383,2.383,0,1,0,4.263-2.131l-3.8-7.606,6.732-3.572.233-.125a5.086,5.086,0,0,0,2.423-2.832l7.806-22.6a1.483,1.483,0,0,1,1.409-1h7.853V84.92Z" transform="translate(-155.045 -64.291)" fill="#fff"/>
      <path id="Path_707" data-name="Path 707" d="M18.4,186.225h4.124l19.538-10.51,5.116-15.225H0l8.608,19.372A10.723,10.723,0,0,0,18.4,186.225Z" transform="translate(0 -129.854)" fill="#fff"/>
      <path id="Path_708" data-name="Path 708" d="M69.876,14.47l-4.925,5.4-6.672-9.056L46.522,27.656H80.2Z" transform="translate(-40.361)" fill="#fff"/>
    </g>
    <rect id="Rectangle_502" data-name="Rectangle 502" width="72" height="72" transform="translate(3509 1499)" fill="none"/>
  </g>
</svg>
