<svg xmlns="http://www.w3.org/2000/svg" xmlns:xlink="http://www.w3.org/1999/xlink" width="48" height="30" viewBox="0 0 48 30">
  <defs>
    <clipPath id="clip-path">
      <rect id="Rectangle_11" data-name="Rectangle 11" width="30" height="30" fill="#0f76bd"/>
    </clipPath>
  </defs>
  <g id="ic-license" transform="translate(-2672 159)">
    <g id="Group_380" data-name="Group 380" transform="translate(2681 -159)">
      <g id="Group_13" data-name="Group 13" clip-path="url(#clip-path)">
        <path id="Path_54" data-name="Path 54" d="M2.813,0A2.814,2.814,0,0,0,0,2.813V24.375A1.876,1.876,0,0,0,1.875,26.25V2.813a.938.938,0,0,1,.937-.937H26.25A1.876,1.876,0,0,0,24.375,0Z" fill="#0f76bd"/>
        <path id="Path_55" data-name="Path 55" d="M4.813,2A2.814,2.814,0,0,0,2,4.813V25.438A2.814,2.814,0,0,0,4.813,28.25H16.224a2.812,2.812,0,0,0,1.987-.825l9.216-9.214a2.81,2.81,0,0,0,.823-1.987V4.813A2.814,2.814,0,0,0,25.438,2ZM3.875,4.813a.938.938,0,0,1,.937-.937H25.438a.938.938,0,0,1,.938.937V15.125H17.938a2.814,2.814,0,0,0-2.812,2.812v8.438H4.813a.938.938,0,0,1-.937-.937ZM17,25.987V17.938A.938.938,0,0,1,17.938,17h8.049Z" transform="translate(1.75 1.75)" fill="#0f76bd"/>
        <path id="Path_56" data-name="Path 56" d="M16.657,13.025c.064-.009.133-.006.2-.013l-5.6-5.295a5.979,5.979,0,0,1,3.167-.853.508.508,0,0,0,.317-.906l-.18-.131a5.091,5.091,0,0,0-2.113-.8,5.314,5.314,0,0,0-4.8,2.13H6.57a.51.51,0,0,0-.36.15L4.9,8.619a.513.513,0,0,0,0,.72l2.617,2.625a.509.509,0,0,0,.72,0l1.309-1.314a.513.513,0,0,0,.15-.358V9.641L14.1,14.3a3.909,3.909,0,0,1,2.554-1.279" transform="translate(4.159 4.366)" fill="#0f76bd"/>
      </g>
    </g>
    <rect id="Rectangle_494" data-name="Rectangle 494" width="48" height="30" transform="translate(2672 -159)" fill="none"/>
  </g>
</svg>
