<svg xmlns="http://www.w3.org/2000/svg" xmlns:xlink="http://www.w3.org/1999/xlink" width="12" height="12" viewBox="0 0 12 12">
  <defs>
    <clipPath id="clip-path">
      <rect id="Rectangle_430" data-name="Rectangle 430" width="12" height="12" fill="#fff"/>
    </clipPath>
  </defs>
  <g id="ic-outerlink-light" clip-path="url(#clip-path)">
    <path id="Path_524" data-name="Path 524" d="M9.354,1.747h1.387L5.13,7.359a.557.557,0,0,0,0,.786l.446.446a.556.556,0,0,0,.786,0l5.613-5.613V4.366a.555.555,0,0,0,.556.556h.635a.555.555,0,0,0,.555-.556V.556A.556.556,0,0,0,13.165,0H9.354A.555.555,0,0,0,8.8.556v.635a.555.555,0,0,0,.556.556" transform="translate(-1.812 0)" fill="#fff"/>
    <path id="Path_525" data-name="Path 525" d="M11.353,6.352h-.635a.555.555,0,0,0-.556.556v3.254H1.746V1.747H5a.555.555,0,0,0,.556-.556V.556A.555.555,0,0,0,5,0H1.508A1.509,1.509,0,0,0,0,1.508V10.4a1.508,1.508,0,0,0,1.507,1.508H10.4A1.515,1.515,0,0,0,11.909,10.4V6.908a.555.555,0,0,0-.556-.556" transform="translate(0 0)" fill="#fff"/>
  </g>
</svg>
