<svg id="ic-reset" xmlns="http://www.w3.org/2000/svg" width="24.528" height="24.529" viewBox="0 0 24.528 24.529">
  <path id="Path_93" data-name="Path 93" d="M0,0H24.529V24.529H0Z" fill="none"/>
  <path id="Path_94" data-name="Path 94" d="M12.965,4.345V1L8.482,5.46l4.482,4.46V6.575a6.712,6.712,0,0,1,6.723,6.69,6.519,6.519,0,0,1-.784,3.122l1.636,1.628a8.81,8.81,0,0,0,1.39-4.75A8.94,8.94,0,0,0,12.965,4.345Zm0,15.609a6.712,6.712,0,0,1-6.723-6.69,6.519,6.519,0,0,1,.784-3.122L5.39,8.515A8.81,8.81,0,0,0,4,13.264a8.94,8.94,0,0,0,8.965,8.919v3.345l4.482-4.46-4.482-4.46Z" transform="translate(-0.7 -1)" fill="#fff"/>
</svg>
