<svg xmlns="http://www.w3.org/2000/svg" xmlns:xlink="http://www.w3.org/1999/xlink" width="30" height="30" viewBox="0 0 30 30">
  <defs>
    <clipPath id="clip-path">
      <rect id="Rectangle_15" data-name="Rectangle 15" width="30" height="27.996" fill="none"/>
    </clipPath>
  </defs>
  <g id="ic-speaker" transform="translate(-1941 -395)">
    <g id="Group_381" data-name="Group 381" transform="translate(1941 396)">
      <g id="Group_17" data-name="Group 17" clip-path="url(#clip-path)">
        <path id="Path_61" data-name="Path 61" d="M5.021,20.426a1.879,1.879,0,0,1,.538,1.5,20.591,20.591,0,0,1-.746,3.75A22.142,22.142,0,0,0,9.752,24a1.872,1.872,0,0,1,1.331-.139,15.013,15.013,0,0,0,3.917.51c7.493,0,13.125-5.263,13.125-11.25S22.493,1.875,15,1.875,1.875,7.14,1.875,13.125a10.3,10.3,0,0,0,3.146,7.3M4.1,27.748q-.667.132-1.337.242a.487.487,0,0,1-.512-.679q.25-.591.457-1.194l.006-.019a19.585,19.585,0,0,0,.983-4.348A12.179,12.179,0,0,1,0,13.125C0,5.876,6.716,0,15,0S30,5.876,30,13.125,23.284,26.25,15,26.25a16.846,16.846,0,0,1-4.4-.574,25.629,25.629,0,0,1-6.5,2.072" transform="translate(0 -0.001)" fill="#70b4e8"/>
        <path id="Path_62" data-name="Path 62" d="M9.749,6.43A3.126,3.126,0,1,0,8.8,10.768a6.138,6.138,0,0,1-1.457,2.287A.782.782,0,0,0,8.47,14.143c2.786-2.888,2.424-6.026,1.279-7.71Zm7.5,0a3.126,3.126,0,1,0-.947,4.339,6.138,6.138,0,0,1-1.457,2.287.782.782,0,1,0,1.125,1.088c2.786-2.888,2.424-6.026,1.279-7.71Z" transform="translate(3.5 4.37)" fill="#ffbf6b"/>
      </g>
    </g>
    <rect id="Rectangle_495" data-name="Rectangle 495" width="30" height="30" transform="translate(1941 395)" fill="none"/>
  </g>
</svg>
