<svg xmlns="http://www.w3.org/2000/svg" xmlns:xlink="http://www.w3.org/1999/xlink" width="25.843" height="19.382" viewBox="0 0 25.843 19.382">
  <defs>
    <clipPath id="clip-path">
      <rect id="Rectangle_20" data-name="Rectangle 20" width="25.843" height="19.382" fill="none"/>
    </clipPath>
  </defs>
  <g id="ic-sitemap" transform="translate(-26.078 -2.559)">
    <g id="Group_21" data-name="Group 21" transform="translate(26.078 2.559)" clip-path="url(#clip-path)">
      <path id="Path_66" data-name="Path 66" d="M8.768,2.423A2.424,2.424,0,0,1,11.191,0h1.615a2.424,2.424,0,0,1,2.423,2.423V4.038a2.424,2.424,0,0,1-2.423,2.423V8.076H21.69a.808.808,0,0,1,.808.808V10.5a.808.808,0,0,1-1.615,0V9.691H12.806V10.5a.808.808,0,0,1-1.615,0V9.691H3.115V10.5a.808.808,0,1,1-1.615,0V8.884a.808.808,0,0,1,.808-.808h8.884V6.461A2.424,2.424,0,0,1,8.768,4.038Z" transform="translate(0.923)" fill="#ffbf6b" fill-rule="evenodd"/>
      <rect id="Rectangle_17" data-name="Rectangle 17" width="6.461" height="6.461" rx="1.5" transform="translate(0 12.922)" fill="#70b4e8"/>
      <rect id="Rectangle_18" data-name="Rectangle 18" width="6.461" height="6.461" rx="1.5" transform="translate(9.691 12.922)" fill="#70b4e8"/>
      <rect id="Rectangle_19" data-name="Rectangle 19" width="6.461" height="6.461" rx="1.5" transform="translate(19.382 12.922)" fill="#70b4e8"/>
    </g>
  </g>
</svg>
