<svg xmlns="http://www.w3.org/2000/svg" width="48" height="30" viewBox="0 0 48 30">
  <g id="ic-user" transform="translate(-3318 160)">
    <path id="ui-checks-grid" d="M3.75,18.75H9.375a1.875,1.875,0,0,1,1.875,1.875V26.25a1.875,1.875,0,0,1-1.875,1.875H3.75A1.875,1.875,0,0,1,1.875,26.25V20.625A1.875,1.875,0,0,1,3.75,18.75M20.625,1.875H26.25A1.875,1.875,0,0,1,28.125,3.75V9.375A1.875,1.875,0,0,1,26.25,11.25H20.625A1.875,1.875,0,0,1,18.75,9.375V3.75a1.875,1.875,0,0,1,1.875-1.875m0,16.875a1.875,1.875,0,0,0-1.875,1.875V26.25a1.875,1.875,0,0,0,1.875,1.875H26.25a1.875,1.875,0,0,0,1.875-1.875V20.625A1.875,1.875,0,0,0,26.25,18.75Zm0-18.75a3.75,3.75,0,0,0-3.75,3.75V9.375a3.75,3.75,0,0,0,3.75,3.75H26.25A3.75,3.75,0,0,0,30,9.375V3.75A3.75,3.75,0,0,0,26.25,0ZM3.75,16.875A3.75,3.75,0,0,0,0,20.625V26.25A3.75,3.75,0,0,0,3.75,30H9.375a3.75,3.75,0,0,0,3.75-3.75V20.625a3.75,3.75,0,0,0-3.75-3.75Zm13.125,3.75a3.75,3.75,0,0,1,3.75-3.75H26.25A3.75,3.75,0,0,1,30,20.625V26.25A3.75,3.75,0,0,1,26.25,30H20.625a3.75,3.75,0,0,1-3.75-3.75ZM0,3.75A3.75,3.75,0,0,1,3.75,0H9.375a3.75,3.75,0,0,1,3.75,3.75V9.375a3.75,3.75,0,0,1-3.75,3.75H3.75A3.75,3.75,0,0,1,0,9.375Zm10.039,1.6A.939.939,0,1,0,8.711,4.024L5.625,7.112,4.414,5.9A.939.939,0,0,0,3.086,7.226L4.961,9.1a.938.938,0,0,0,1.327,0Z" transform="translate(3327 -160)" fill="#0f76bd"/>
    <rect id="Rectangle_496" data-name="Rectangle 496" width="48" height="30" transform="translate(3318 -160)" fill="none"/>
  </g>
</svg>
