<svg id="logo" xmlns="http://www.w3.org/2000/svg" xmlns:xlink="http://www.w3.org/1999/xlink" width="159.862" height="38" viewBox="0 0 159.862 38">
  <defs>
    <clipPath id="clip-path">
      <rect id="Rectangle_1" data-name="Rectangle 1" width="159.862" height="38" fill="none"/>
    </clipPath>
  </defs>
  <g id="Group_1" data-name="Group 1" clip-path="url(#clip-path)">
    <path id="Path_1" data-name="Path 1" d="M584.6,18.669v.309c-.067.7-.739.887-1.465.834-.162.04-.188.175-.35.148a2.675,2.675,0,0,0-.323,1.116c.081.04.108.121.148.2-.081,1.089.148,1.882.121,2.931-.027.121.081.107.081.2A1.476,1.476,0,0,0,582.5,25.7c.014.148.094.309.108.43,0,.041-.067.108-.054.148.014.081.094.134.107.2s-.041.053-.054.121.067.2.054.256c0,.107-.054.242-.054.309.013.148.148.228.148.349,0,.161-.094.135-.175.282a1.822,1.822,0,0,1-.027.242c-.04.094-.134.188-.148.256-.08.35.2.793.174,1.116-.04.444-.564.645-.78.928.027.081.094.215.027.282a8.491,8.491,0,0,1-1.318-.027v-.2a2.588,2.588,0,0,0-.78-.148c-.578-.094-.713-.739-1.344-.779-.377-.336-.632-.793-1.156-1a1.688,1.688,0,0,0-.3-.578v-.108c.4.094,1.036-.067,1.224.256.337-.027.646.188.941.229.175.014.377-.027.578,0a1.347,1.347,0,0,0,.323.054c.9-.081.941-1.614.888-2.447.4-.619.215-1.748.282-2.676a.793.793,0,0,0,.054-.256c0-.188-.108-.39-.108-.578,0-.43.094-.9.108-1.345a1.644,1.644,0,0,1-.134-.605c-.3-.417-.565-.094-1.008,0-.336.067-.753.067-1.116.107-.229.04-.444.175-.632.215-.161.013-.336-.027-.471,0s-.3.215-.457.134c-.107.013-.081.148-.174.175a1.5,1.5,0,0,1-.256-.027c-.014,0-.027.013-.041.013v-.793c.2-.094.242-.215.524-.282.148-.04.255-.242.444-.3a8.482,8.482,0,0,0,1.654-.6c.188-.081.323-.3.5-.363s.4-.014.484-.229c.013-.161-.081-.215-.108-.323.081-.148.229-.229.282-.4,0-.188-.161-.215-.174-.4-.014-.161.147-.3.121-.484-.054-.3-.484-.417-.578-.686-.04-.134-.134-.377-.148-.471-.067-.591.417-.807.5-1.371a1.418,1.418,0,0,1,1.116-.376c.174.04.242.3.457.255a.952.952,0,0,0,.5.551c.108.229-.067.39-.094.578-.04.309.269.632,0,.914.174.2.067.686.349.78-.04.215.081.3.148.43a1.259,1.259,0,0,1,.43.2,1.217,1.217,0,0,1,.027.256c.162.188.4.107.605.175.269.094.417.43.632.578m-7.664,8.457c.309-.4.659-.78,1-1.156-.134-.417.188-.5.134-.9a.511.511,0,0,0-.336-.134,1.03,1.03,0,0,0-.793-.524Zm0-14.817v-1.9c.471-.04.887-.363,1.4-.282.094.014.188.108.309.135.054.013.135-.014.175,0a.981.981,0,0,0,.458.175,1.093,1.093,0,0,1,.833.6c-.3.242-.4.659-.807.807-.215-.067-.309.013-.511.027a.531.531,0,0,0-.121.229c-.134.014-.148-.094-.282-.081a3.154,3.154,0,0,1-1.452.282m0,15.583a.733.733,0,0,0-.134-.148.226.226,0,0,0,.134.04Zm0-6.857a1.761,1.761,0,0,0-.309.242c-.094,0-.121.054-.229.027-.309.35-.9.4-1.17.78-.645.054-.766.632-1.465.632.054-.309.377-.349.538-.551-.094-.162.027-.323.094-.43.524.081.564-.323.914-.43v-.229a4.015,4.015,0,0,0,.807-.376c.08-.054.134-.188.228-.256a3.232,3.232,0,0,1,.578-.2h.013Zm0-10.622H576.8a.9.9,0,0,1-.363.309h-.3c-.108.417-.578.309-1.009.4-.134.041-.2.215-.336.121a1.876,1.876,0,0,1-.955.4,1.417,1.417,0,0,1-1.008.309c-.121.215-.376.188-.632.269-.081.014-.148.094-.229.107a3,3,0,0,1-.35,0,3.381,3.381,0,0,0-.659.256c-.215.081-.444.054-.565.148-.578-.027-.86.242-1.385.256-.094.027-.094.148-.2.148-.444.121-.981.107-1.439.229-.08.027-.121.081-.2.094-.3.027-.592-.121-.86-.067-.108.027-.175.121-.255.148a.759.759,0,0,1-.175.014v.255c.376.054.659.444,1.035.511.148.027.309-.041.457-.027.484.027.794.323,1.183.363a7.311,7.311,0,0,0,1.694-.282c.3-.161.511-.471.968-.377.041.148.188.269.175.43,0,.108-.121.161-.175.3-.027.067,0,.148-.027.2-.148.309-.524.551-.686.86-.054.081-.014.188-.054.282-.094.215-.309.363-.4.551-.027.04.014.148,0,.2-.081.2-.363.282-.255.6-.067.108-.269.148-.349.256-.04.054-.027.175-.054.229-.067.107-.215.148-.269.229s-.027.242-.081.35-.175.134-.229.229-.054.255-.121.376c-.108.188-.3.3-.282.565a3.954,3.954,0,0,0-.807.834,2.834,2.834,0,0,0-.2.981c.013.484.591.256,1.008.2a1.8,1.8,0,0,1,.753-.377c.148-.134.148-.444.39-.484.135-.551.619-.726.982-1.035-.081-.323.282-.471.43-.753.067-.107.027-.3.121-.43.067-.107.228-.121.336-.229.081-.067.121-.215.2-.309s.188-.094.242-.148c.054-.081.054-.242.135-.35.148-.188.363-.242.4-.4s-.027-.363,0-.511c.054-.269.3-.43.255-.686-.014-.121-.135-.242-.161-.377a9.258,9.258,0,0,0-.148-1.062c-.269-.2-.591-.323-.605-.78.215-.309.847-.2,1.089-.484a.822.822,0,0,0,.323-.067c.094-.041.121-.161.228-.2a2.374,2.374,0,0,0,1.116-.282,4.985,4.985,0,0,1,.605-.081c.3-.107.3-.349.632-.349.377,0,.793.027,1.2.027Zm0,14a3.773,3.773,0,0,0-1.882.175c-.282.108-.605.229-.659.457.121.067.161.229.4.323.565.215,1.694-.161,1.425.659a.362.362,0,0,1-.255.081,1.9,1.9,0,0,1-.336.551c-.256.565-.726.9-.928,1.519.242.215.443-.081.578-.229.47-.108.74-.578,1.345-.376.094-.148.2-.3.309-.444ZM565.884,21.52V19.4a.531.531,0,0,1,.108.134c.013.2.094.538-.054.659.04.067.161.054.174.134a4.031,4.031,0,0,1-.228,1.2M576.492,7.684c.013.712-1.412.457-2.1.538-.148.121-.3.054-.524.067-.363.013-.78.269-1.062.255-.242-.013-.443-.215-.659-.282s-.471-.04-.632-.121c-.269-.134-.269-.551-.632-.605.148-.242-.336-.269-.2-.6.726-.148,1.654.054,2.124-.376a6.226,6.226,0,0,0,1.641-.054c.551-.027,1.479.134,1.694.5.041.054.054.175.121.282.094.175.229.269.229.4M572.5,23.724c.161.215-.081.39-.121.605-.014.081.04.175.027.255-.014.148-.135.309-.175.484-.04.256.054.552-.108.78.121.067.04.256.081.43.027.121.148.242.148.376a1.706,1.706,0,0,1-.094.282c-.081.4.027,1.143-.591,1.129-.282-.014-.35-.229-.605-.3-.013-.336-.484-.712-.47-1.21.013-.121.107-.229.121-.363.013-.188-.04-.39-.027-.578.014-.363-.094-.726-.053-.982.013-.107.121-.161.134-.256.081-.3-.121-.551-.134-.807-.014-.094.04-.161.026-.228-.067-.215-.5-.444-.175-.713-.067-.175-.376-.215-.376-.376s.323-.309.484-.3c.336.04.484.511.672.632.027.444.336.619.484.955v.255c.3.04.444-.215.753-.081M565.884,13.56v.255a.772.772,0,0,0-.175-.013c0-.054-.013-.094-.054-.108.027-.121.121-.134.229-.134m0,5.835V21.52a3.031,3.031,0,0,0-.2,1.479c-.444.256-.081,1.2-.43,1.412a.552.552,0,0,1-.121.376c-.041.417.08.713-.027,1.009-.04.107-.2.161-.255.282a.9.9,0,0,0,0,.7c-.2.188-.121.5-.376.618.161.3-.148.524-.175.807-.39.121-.484.565-.914.632.094-.524.363-.712.4-1.291.242-.134.121-.39.175-.632.013-.094.121-.162.161-.283.041-.094.027-.215.068-.3.041-.107.135-.174.175-.282.068-.269-.054-.524.134-.686a.3.3,0,0,0,.349-.148,2.877,2.877,0,0,1-.148-1.008c.054-.35-.067-.713,0-1.035.027-.134.188-.269.2-.4a4.5,4.5,0,0,0-.027-.713c-.027-.188-.255-.39-.282-.6a2.165,2.165,0,0,1,.027-.4c-.014-.3-.094-.605-.094-.834,0-.4.054-.645-.2-.887.134-.2-.014-.511-.108-.659a.665.665,0,0,0-.323-.982c.081-.2-.027-.592.121-.726.027,0,.027.013.027.04a6,6,0,0,1,1.816,2.353c0,.013.013.027.027.04" transform="translate(-426.674 -4.921)" fill="#1a1311"/>
    <path id="Path_2" data-name="Path 2" d="M478.958,37.154a1.74,1.74,0,0,1-1.049-.054.919.919,0,0,1-.887-.121c-.726.013-1.372-.5-2.111-.565-.484-.04-.941.107-1.1-.363-1-.309-1.372-1.237-2.152-1.775-.255-.444-.484-.915-.793-1.358-.148-.215-.377-.363-.511-.565-.013-.027-.027-.041-.041-.067v-4.76a2.36,2.36,0,0,0,.135-.4c.067-.377-.067-.78.175-1.089.632-.121,1.035.457,1.371.887a1.369,1.369,0,0,1,.47,1.3,3.544,3.544,0,0,1-.766,1.062c-.323.363-.659.686-.874.982a3.451,3.451,0,0,1-.027.538c.363.135.457.538.686.834.538.659,1.425.968,1.99,1.627.767.188.982.928,1.735,1.13.914,1.25,2.81,1.532,3.751,2.756m-9.541-12.53.9-.713a1.356,1.356,0,0,1,.189-.107c.215-.108.457-.148.659-.242.08-.027.477-.133.558-.174a4.612,4.612,0,0,0,.625-.27,5.941,5.941,0,0,0,1.23-.967c.3-.223.411-.19.585-.364.336-.04.578-.175.874-.094s.421.409.74.565c-.027.161.108.323.054.484a4.344,4.344,0,0,1-.619.592,5.9,5.9,0,0,1-1.492.417,7.438,7.438,0,0,1-.766.107c-.256.04-.37.046-.612.1a5.653,5.653,0,0,0-.611.169,4.236,4.236,0,0,1-.477.1c-.094.013-.316.085-.384.085a1.989,1.989,0,0,0-.556.211l-.693.124Zm.9-3.4v-4.1c.834.081,1.855.134,1.949.834.054.417-.309.645-.537.9-.242.538-.632.968-.9,1.506a4.548,4.548,0,0,1-.511.86m0,11.066c-.107-.2-.228-.551-.471-.592s-.672.336-.86.511c-.256.229-.471.565-.686.713a1.41,1.41,0,0,1-.269.107c-.282.215-.5.484-.807.713a1.606,1.606,0,0,1-.444.3c-.121.067-.175.161-.39.121-.067.013.014.161-.08.148-.471,0-.606.417-.928.592a1.942,1.942,0,0,1-.3.094c-.229.108-.336.269-.592.322V34.9c.323-.336.834-.578,1.062-1.008.081.014.054.121.121.121a2.888,2.888,0,0,1,1.129-1.035c.269-.551.82-.766,1.251-1.277a2.717,2.717,0,0,0,.659-1.008c.081-.524-.376-1.035-.618-1.372a3.9,3.9,0,0,0-.511-.619,4.413,4.413,0,0,0-1.2-.834,2.148,2.148,0,0,1,1.291.309,9.763,9.763,0,0,1,1.129.551c.255.175.39.5.807.417a2.576,2.576,0,0,0,.444-.968c.067-.215.175-.43.255-.646Zm0-15.167v4.1a.984.984,0,0,1-.107.148,8.921,8.921,0,0,1-1.546,1.694c-.323-.081-.3-.376-.269-.807,0-.161-.013-.349,0-.417.027-.107.162-.256.229-.4a8.929,8.929,0,0,0,.39-1.546c.067-.269.269-.524.336-.78.027-.108.027-.242.054-.35.053-.175.175-.323.215-.471a2.968,2.968,0,0,0-.04-.982c.121-.175.323-.054.457-.215a2.023,2.023,0,0,0,.282.027m0,6.79v.336c-.269.094-.457.39-.739.511a3.109,3.109,0,0,1-.35.054,6.532,6.532,0,0,1-.834.242,3.255,3.255,0,0,0-1.291.269c-.148-.054-.39-.013-.524-.067-.081-.39.215-.538.349-.793.256-.188.43.161.659.2.148.027.3-.094.538-.148s.484-.054.659-.121c.148-.054.256-.215.377-.269.228-.081.443.013.726-.027a1.608,1.608,0,0,0,.43-.188m-5.822,9.627a.4.4,0,0,0,.269-.322,1.407,1.407,0,0,0-.269-.645Zm0,1.775c-.054,0-.107.014-.161.014V35.1a.592.592,0,0,1,.161-.2Zm0-2.743v.968a.753.753,0,0,1-.161.054V32.435c.054.04.107.067.121.094.013,0,.027.013.04.04m-.161-3.953V25.336a1.326,1.326,0,0,1,.094.457,7.32,7.32,0,0,1-.081.834c-.054.538.094,1.157.027,1.654-.013.121-.027.229-.04.336m0,6.709a.292.292,0,0,1-.108-.014.634.634,0,0,1,.108-.215Zm0-9.99v3.281a9.516,9.516,0,0,1-.2,1.089c-.4.108-.619-.215-.928-.229-.108-.336-.524-.39-.471-.807.255-.107.632-.282.686-.619.027-.161-.04-.363-.027-.511a12.6,12.6,0,0,0-.094-2.851c.431-.161.847.188,1.036.645m0,7.1c-.067-.04-.148-.081-.2-.121-.511-.323-.713.054-1.277.3a6.986,6.986,0,0,1-1.049.363c-.443.094-1.264.094-1.452-.242s.04-1,.027-1.358c-.013-.484-.067-.941-.054-1.425.014-1.049-.027-2.03.081-3a.583.583,0,0,1,0-.592c-.188-.229-.053-.565-.053-.887s-.094-.659-.121-1.008.054-.767,0-1.076c-.067-.43-.5-.86-.175-1.3a7.36,7.36,0,0,1,1.008-.3c.215-.081.377-.269.592-.323.255-.081.551-.054.753-.148.242-.121.35-.39.618-.444.35-.094,1.062.094,1.2-.215.081-.2-.242-.565-.444-.686-.175-.094-.485-.175-.686-.269-.39-.161-.591-.282-.874-.175-.094.04-.2.027-.322.067-.189.054-.377.188-.592.269s-.457.121-.686.2c-.39.134-.726.43-1.076.538-.215.067-.5.108-.739.175a3.82,3.82,0,0,1-1.076.175c-.672,0-1.264.417-1.99.269.013.309.309.39.565.39a.694.694,0,0,0,.121.377,2.6,2.6,0,0,0,1.129.686,1.436,1.436,0,0,0,1.035-.175c.4.148.363.619.417,1.129a6.958,6.958,0,0,1,.121.86c.013.672-.2,1.358-.175,2.071.027.578-.148,1.157-.148,1.721,0,.269.054.538.027.78-.014.175-.108.336-.121.5-.014.134.04.282.027.417a8.541,8.541,0,0,1-.175.914,1.822,1.822,0,0,0,.094.807c.014.121,0,.282.027.417.054.3.255.538.2.807-.121.686-1.3.5-1.9.592-.188.027-.309.134-.484.081-.242-.565.2-1.21.3-1.95.067-.417.027-.847.094-1.277-.215-.269-.269-.753-.565-1.13-.094-.121-.282-.188-.39-.3-.282-.309-.471-.766-.847-.471-.067.282.134.457.121.74-.014.161-.121.336-.121.5,0,.121.081.215.094.323a2.657,2.657,0,0,1-.148.86c-.054.215-.081.43-.121.632-.094.39-.282.739-.39,1.13-.107.363-.161.712-.3,1.062a7.7,7.7,0,0,0-.336,1.035c.377.578.6,1.4,1.345,1.493.551.067.726-.39,1.089-.565.081-.041.189-.041.3-.094a1.449,1.449,0,0,1,.242-.148c.107-.04.269-.013.39-.054.376-.135.685-.417.941-.484.188-.04.363-.013.511-.054a2,2,0,0,1,.981-.242,9.333,9.333,0,0,1,2.205-.5,3.073,3.073,0,0,1,.417-.148c.107-.013.229.041.322.027.417-.027.753-.269,1.224-.2.081-.107.282-.134.471-.188Z" transform="translate(-343.754 -12.946)" fill="#1a1311"/>
    <path id="Path_3" data-name="Path 3" d="M284.062,41.869c.054.336-.188.538-.175.9-.121.027-.027-.148-.161-.107-.027.175.134.161.134.309-.027.766-.148,1.318-.82,1.492a6.694,6.694,0,0,1-1.546-.121c-.094-.013-.148.027-.215.014-.229-.027-.43-.121-.632-.148a3.537,3.537,0,0,0-1.291.174c-.228.067-.43.054-.619.108-.108.04-.269.161-.39.161-.336-.014-.484-.511-.619-.834-.041-.121-.134-.215-.148-.282a2.242,2.242,0,0,1,.081-1.156c.054-.242.134-.4.2-.713.094-.484.417-.887.484-1.237.04-.174-.014-.39.027-.565.04-.2.148-.4.2-.591.067-.229.081-.444.134-.672.121-.538.309-.847.39-1.412.054-.43.363-.968.457-1.452.067-.336.229-1.129-.148-1.156-.188,0-.215.161-.336.269a5.49,5.49,0,0,0-1.345.941,7.879,7.879,0,0,0-.941.955c-.242.3-.376.686-.726.874-.336.457-.672.941-1.049,1.385-.121.148-.309.256-.417.39-.094.108-.148.282-.256.417-.161.189-.336.283-.363.592-.35.2-.444.672-.793.874,0,.108-.081.134-.081.229-.417.309-.592.82-.928,1.21a4.733,4.733,0,0,0-1.009,1.237c-.726.444-1.116,1.492-1.949,1.748a.835.835,0,0,1-.511-.027c-.108-.027-.188-.121-.309-.148-.3-.094-.4-.094-.565-.336a5.859,5.859,0,0,0-.471-1.546c-.081-.161-.242-.323-.255-.471a2.138,2.138,0,0,1,.229-.659c.2-.269.618-.3.874-.5a.867.867,0,0,0,.753-.376c-.013-.471.054-.915.027-1.318a1.406,1.406,0,0,1-.054-.228c.013-.215.188-.417.081-.645-.121-.121-.4-.081-.444-.282a1.8,1.8,0,0,1-.9-.081c-.067-.161-.269-.175-.39-.282-.081-.067-.107-.2-.2-.309-.067-.081-.2-.107-.256-.175-.121-.148-.161-.363-.282-.511s-.3-.282-.417-.444c-.282-.4-.134-1.008-.565-1.291-.067-.161-.067-.3-.121-.43-.04-.081-.148-.094-.134-.309.269.081.336.363.511.538.081.013.229-.027.255.027a5.987,5.987,0,0,0,1.4.955c.269.013.457.148.686.081.161-.054.121-.175.215-.3.081-.081.2-.04.229-.148a9.411,9.411,0,0,1,.282-1.466c.013-.107-.014-.2,0-.309.013-.081.067-.175.081-.256a2.691,2.691,0,0,0-.081-.619c-.027-.188.027-.4,0-.565-.041-.323-.135-.632-.2-1.035a5.143,5.143,0,0,0-.444-1.183c.484-.067.6.229,1.062.188a4.6,4.6,0,0,1,.955.766,3.836,3.836,0,0,1,.632.753,5.425,5.425,0,0,1,.242,2.958c-.013.094.081.094.067.2-.094.175-.04.323-.04.511-.027.4-.188.807-.215,1.183a4.259,4.259,0,0,1-.175,1.573c.121.457-.161.928-.027,1.3.444.134.484-.336.82-.4.417-.5.995-.861,1.465-1.345a5.16,5.16,0,0,1,.444-.484c.121-.094.282-.121.4-.2.471-.336.74-.928,1.345-1.156v-.282a9.9,9.9,0,0,0,1.613-1.573c.175-.175.4-.309.565-.5.524-.511,1.143-.941,1.681-1.492.511.04.659-.282.847-.592.014-.269-.067-.5.081-.659-.161-.242-.054-.565-.081-.847a8.967,8.967,0,0,1-.282-1.775c.229-.229.618-.3.874-.5a1.357,1.357,0,0,0,.793-.2,4.985,4.985,0,0,1,.417,1.412c.04.175-.027.511.027.726.04.134.215.215.282.336a.914.914,0,0,1,.43.148,1.768,1.768,0,0,1,.807.645c.524.027.35.847.121,1.129a1.57,1.57,0,0,1-.591.417c-.39.161-.887.094-1.076.43-.107.309-.04.793-.282.955.054.471-.255.592-.2,1.049-.094.107-.121.256-.215.336-.282,1.828-.955,3.375-1.358,5.15.269.309.793.013,1.264-.054.2-.027.417.014.619-.027.134-.027.255-.135.4-.148a5.8,5.8,0,0,1,.955.081,2.234,2.234,0,0,1,.282-.027c.229.04.834.511.874.82" transform="translate(-200.926 -21.577)" fill="#1a1311"/>
    <path id="Path_4" data-name="Path 4" d="M372.363,15.982c.865.62,1.919-.039,2.99-.544,1.071-.141,2.157-1.142,3.088-.5a13.83,13.83,0,0,0,2.24-.335c.855.031,1.6.348,1.579,1.377-.014.733-.483.986-1.105,1.081s-1.4.413-2.02.134a3.688,3.688,0,0,0-3.187.887c-1.074.455-2.156,0-3.238.676-.217.076-.2,1.021-.173,1.215.022.445.044,1.132-.174,1.215a1.153,1.153,0,0,1,1.25-.48c.439-.17.9-.237,1.359-.412a1.837,1.837,0,0,1,1.4-.274,3.68,3.68,0,0,1,1.373.646c-.05.6-.069,1.156-.085,1.714-.016.265-.029,1.1-.069,1.73-.08,1.014-.269,3.3-.8,3.251-.532.762-1.408,2-2.865,1.118-.251-1.112-.543-.823-.822-1-.279-.387-.544-.318-.741-1.082a5.215,5.215,0,0,0-.257,2.334c.009.4.025.77.045,1.391.02.549.043.8.066,1.1.023.082.044.588.059.91.016.432.026.635.025.918,0,.333,0,.53-.008.686s-.015.271-.027.437c-.016.458-.04.76-.071.717-.031.2-.07.21-.118.538a1.143,1.143,0,0,1-.41.745c-.18.012-.408.443-.694.644a5.157,5.157,0,0,0-.427-1.174,5.009,5.009,0,0,0-.267-.8,2.289,2.289,0,0,0-.133-.467c-.012-.188-.02-.24-.025-.522,0-.2,0-.4,0-.584,0,0,.011-.446.021-.52a4.294,4.294,0,0,1,.038-.541,4.616,4.616,0,0,1,.117-.93,8.356,8.356,0,0,0,.149-1.026c.052-.413.106-.945.157-1.263.051-.419.1-.814.139-1.123a16.118,16.118,0,0,0,.057-3.382c-.975.016-1.494,1.383-2.053,2.158A2.963,2.963,0,0,1,366.46,29c-.2-.742-.319-.17-.379-1.057a5.952,5.952,0,0,1-.007-1.425,9.911,9.911,0,0,1,.277-1.608,5.856,5.856,0,0,1,.475-1.606c.182-1.171.382-.18.586-1.689.2-1.108.412-1.292.609-.777.3-.383.708-.129,1.142-.991a8.842,8.842,0,0,0,1.289-.572V18.239a5.654,5.654,0,0,0,3-.287,22.647,22.647,0,0,1,2.212-1.45c-1.046-.067-2.108.868-3.164.6-1.055-.288-2.1,1.2-3.117,1.241-1.015.528-2,1-2.922,1.462-.971.93-1.939.776-2.679,1.059-.74.016-1.253-.5-1.315-2.1.855.153,1.731-.433,2.606-.175.875.037,1.747-.681,2.594-1,.847-.459,1.668-1.161,2.44-1.082-.232.308-.772.222-1.042-.521.516.211.566-1.02.418-1.929-.148-.736-.493-1.827-.766-1.37a2.88,2.88,0,0,1,2.845.411c.747,1.329,1.153,1.251.8,2.888m-1.563,6.6c.028-1.122.177-.714.2-1.767.024-1.218-.077-1.429-.547-1.359-.328.324-.634,1.3-.906,1.039-.272.2-.51,1.125-.7.956-.191.928-.335.621-.419,1.524a3.669,3.669,0,0,0-.058,1.169c.363-.057.775.088,1.194-.8a1.293,1.293,0,0,1,1.237-.76m1.389.694a15.008,15.008,0,0,1,0,2.257c.585.773,1.107-.429,1.546.37.439.563.8-.314,1.053-.652a5.4,5.4,0,0,0,.448-1.336,6.07,6.07,0,0,0-.269-1.681,6.343,6.343,0,0,0-1.544.366c-.464.138-.876.629-1.235.675" transform="translate(-274.511 -9.434)" fill="#1a1311" fill-rule="evenodd"/>
    <path id="Path_5" data-name="Path 5" d="M177.283,11.975a3.118,3.118,0,0,1-.136,1.3,4.181,4.181,0,0,1-.506.926,2.232,2.232,0,0,0-.478.953c.093.276.208-.03.341.233.133.145.283-.063.445-.055.162.106.335-.016.515-.229.18-.242.365-.114.551-.289.186-.075.372-.236.553-.18a.393.393,0,0,0,.521-.122.469.469,0,0,1,.455.151,1.676,1.676,0,0,1,.355.676c-.256.078-.575.713-.934.758a2.3,2.3,0,0,1-1.163.432,9.445,9.445,0,0,1-1.235.211c-.406.045-.8.07-1.151.093a4.5,4.5,0,0,0,.116-1.05,7.659,7.659,0,0,0-.106-1.177c-.071-.089-.176-.932-.313-1.175a5.283,5.283,0,0,0-.506-1.044,1.674,1.674,0,0,0-.685-.784,1.057,1.057,0,0,1,.689-.715c.28-.37.6.053.923.12.324-.081.654.206.957.511.3.289.578.261.792.457" transform="translate(-131.718 -8.131)" fill="#1a1311" fill-rule="evenodd"/>
    <path id="Path_6" data-name="Path 6" d="M177.283,11.975a3.118,3.118,0,0,1-.136,1.3,4.181,4.181,0,0,1-.506.926,2.232,2.232,0,0,0-.478.953c.093.276.208-.03.341.233.133.145.283-.063.445-.055.162.106.335-.016.515-.229.18-.242.365-.114.551-.289.186-.075.372-.236.553-.18a.393.393,0,0,0,.521-.122.469.469,0,0,1,.455.151,1.676,1.676,0,0,1,.355.676c-.256.078-.575.713-.934.758a2.3,2.3,0,0,1-1.163.432,9.445,9.445,0,0,1-1.235.211c-.406.045-.8.07-1.151.093a4.5,4.5,0,0,0,.116-1.05,7.659,7.659,0,0,0-.106-1.177c-.071-.089-.176-.932-.313-1.175a5.283,5.283,0,0,0-.506-1.044,1.674,1.674,0,0,0-.685-.784,1.057,1.057,0,0,1,.689-.715c.28-.37.6.053.923.12.324-.081.654.206.957.511C176.794,11.806,177.069,11.778,177.283,11.975Z" transform="translate(-131.718 -8.131)" fill="none" stroke="#1a1311" stroke-width="0.77"/>
    <path id="Path_7" data-name="Path 7" d="M214.775,21.159v.747c-.3.162-.62.314-.941.46s-.649.285-.979.421c-.331.351-.664.23-1,.4-.332-.062-.664.5-.991.409a1.036,1.036,0,0,0-.965.436c-.315-.065-.621.472-.917.484.225.128.421.7.593.861a1.633,1.633,0,0,1,.238.41c.073.187.14.463.2.66a2.859,2.859,0,0,1,.166.651c.05.532.094-.1.134.586.026.357.05.655.072.439a2.086,2.086,0,0,0,.059.459c.017-.19.033.4.046.388.013-.349.025.675.034.554.009.09.017.31.023.483.006.555.009-.039.012.491,0,.718,0,.4,0,.519,0-.408,0,.181-.008.475-.006.717-.015.058-.026.654-.011.191-.025.128-.041.681-.008.126-.016-.132-.025.393-.009.579-.019-.185-.029.389a2.424,2.424,0,0,1-.067.538,3.312,3.312,0,0,1-.038.471c-.013.652-.026.46-.04.328s-.057.215-.088.478c-.031.554-.063.661-.1.7-.033.173-.068.313-.1.506-.142.773-.3,1.479-.456,2.08-1.283-.024-1.462-1.152-1.867-2.054a.892.892,0,0,0,.609-.044.333.333,0,0,1,.511-.142c-.026-.322-.049-.682-.069-1.072-.02-.119-.038-.488-.053-1.158a4.422,4.422,0,0,1-.021-.622c-.006.12-.012-.056-.018-.6,0-.418-.006-.508-.008-.521,0-.361,0-.4-.007-.256,0,.13-.008-.49-.012-.473,0-.306-.007-.273-.009-.693,0-.513-.005.2-.007-.562,0-.214-.005-.718-.007-.928,0-.609,0-.664,0-.9,0,.08,0-1.119,0-.869,0-.147,0-.661,0-.823q0-.3,0-.589t.005-.55c0-.331.008-.861.012-.963a3.477,3.477,0,0,1-.928-.006,7.755,7.755,0,0,1-2.62-.181c-.09.4-.158.853-.215,1.33-.057.625-.1,1.088-.148,1.5-.044.518-.088,1.2-.14,1.553-.052.668-.113.9-.192,1.5a10.065,10.065,0,0,1-.3,1.337c-.379,1.219-1.015,2.028-2.177,1.932-.586-.641.594-.648.747-1.12.092-.305.184-.638.272-.993s.173-.732.252-1.126a7.282,7.282,0,0,0,.214-1.224c.063-.282.116-1.078.157-1.288a11.685,11.685,0,0,0,.082-1.318c.013-.431.01-.774-.011-1.313-.022-.433-.062-.86-.123-1.274a8.282,8.282,0,0,0-.656-2.295,17.169,17.169,0,0,1,1.112-2.036c.2-.324.406-.644.609-.965a.858.858,0,0,1,.3-.423c.1-.028.2-.24.3-.551.1-.571.193-.371.287-.562.093-.089.184-.384.272-.454.088-.154.172-.6.253-.544.081-.325.157-.58.23-.547a4.826,4.826,0,0,1,.2-.7,2.777,2.777,0,0,0,.171-.5c.251-.171.541-.288.809.252a2.531,2.531,0,0,1,.379.456c.116.186.219.157.3.569.083.393.145.281.179.6a1.613,1.613,0,0,1,.012.551,2.581,2.581,0,0,1-.4.827,2.007,2.007,0,0,1-.792.776,4.078,4.078,0,0,1-1,.729,1.308,1.308,0,0,0-1.033.688,10.428,10.428,0,0,0-.884.653,2.355,2.355,0,0,0-.554.623c.494.875,1.5,1.239,1.494,2.614a9.434,9.434,0,0,0,2.356-1.022c.4-.224.8-.669,1.2-.7.4-.134.8-.6,1.209-.681.4-.175.812-.335,1.221-.556.409-.055.819-.532,1.232-.323a3.957,3.957,0,0,1,1.243.017,3.853,3.853,0,0,1,1.253.463" transform="translate(-152.777 -10.967)" fill="#1a1311" fill-rule="evenodd"/>
    <path id="Path_8" data-name="Path 8" d="M214.775,21.159v.747c-.3.162-.62.314-.941.46s-.649.285-.979.421c-.331.351-.664.23-1,.4-.332-.062-.664.5-.991.409a1.036,1.036,0,0,0-.965.436c-.315-.065-.621.472-.917.484.225.128.421.7.593.861a1.633,1.633,0,0,1,.238.41c.073.187.14.463.2.66a2.859,2.859,0,0,1,.166.651c.05.532.094-.1.134.586.026.357.05.655.072.439a2.086,2.086,0,0,0,.059.459c.017-.19.033.4.046.388.013-.349.025.675.034.554.009.09.017.31.023.483.006.555.009-.039.012.491,0,.718,0,.4,0,.519,0-.408,0,.181-.008.475-.006.717-.015.058-.026.654-.011.191-.025.128-.041.681-.008.126-.016-.132-.025.393-.009.579-.019-.185-.029.389a2.424,2.424,0,0,1-.067.538,3.312,3.312,0,0,1-.038.471c-.013.652-.026.46-.04.328s-.057.215-.088.478c-.031.554-.063.661-.1.7-.033.173-.068.313-.1.506-.142.773-.3,1.479-.456,2.08-1.283-.024-1.462-1.152-1.867-2.054a.892.892,0,0,0,.609-.044.333.333,0,0,1,.511-.142c-.026-.322-.049-.682-.069-1.072-.02-.119-.038-.488-.053-1.158a4.422,4.422,0,0,1-.021-.622c-.006.12-.012-.056-.018-.6,0-.418-.006-.508-.008-.521,0-.361,0-.4-.007-.256,0,.13-.008-.49-.012-.473,0-.306-.007-.273-.009-.693,0-.513-.005.2-.007-.562,0-.214-.005-.718-.007-.928,0-.609,0-.664,0-.9,0,.08,0-1.119,0-.869,0-.147,0-.661,0-.823q0-.3,0-.589t.005-.55c0-.331.008-.861.012-.963a3.477,3.477,0,0,1-.928-.006,7.755,7.755,0,0,1-2.62-.181c-.09.4-.158.853-.215,1.33-.057.625-.1,1.088-.148,1.5-.044.518-.088,1.2-.14,1.553-.052.668-.113.9-.192,1.5a10.065,10.065,0,0,1-.3,1.337c-.379,1.219-1.015,2.028-2.177,1.932-.586-.641.594-.648.747-1.12.092-.305.184-.638.272-.993s.173-.732.252-1.126a7.282,7.282,0,0,0,.214-1.224c.063-.282.116-1.078.157-1.288a11.685,11.685,0,0,0,.082-1.318c.013-.431.01-.774-.011-1.313-.022-.433-.062-.86-.123-1.274a8.282,8.282,0,0,0-.656-2.295,17.169,17.169,0,0,1,1.112-2.036c.2-.324.406-.644.609-.965a.858.858,0,0,1,.3-.423c.1-.028.2-.24.3-.551.1-.571.193-.371.287-.562.093-.089.184-.384.272-.454.088-.154.172-.6.253-.544.081-.325.157-.58.23-.547a4.826,4.826,0,0,1,.2-.7,2.777,2.777,0,0,0,.171-.5c.251-.171.541-.288.809.252a2.531,2.531,0,0,1,.379.456c.116.186.219.157.3.569.083.393.145.281.179.6a1.613,1.613,0,0,1,.012.551,2.581,2.581,0,0,1-.4.827,2.007,2.007,0,0,1-.792.776,4.078,4.078,0,0,1-1,.729,1.308,1.308,0,0,0-1.033.688,10.428,10.428,0,0,0-.884.653,2.355,2.355,0,0,0-.554.623c.494.875,1.5,1.239,1.494,2.614a9.434,9.434,0,0,0,2.356-1.022c.4-.224.8-.669,1.2-.7.4-.134.8-.6,1.209-.681.4-.175.812-.335,1.221-.556.409-.055.819-.532,1.232-.323a3.957,3.957,0,0,1,1.243.017A3.853,3.853,0,0,1,214.775,21.159Z" transform="translate(-152.777 -10.967)" fill="none" stroke="#1a1311" stroke-width="0.77"/>
    <path id="Path_9" data-name="Path 9" d="M164.783,35.078c.09.483-2.575,2.33-3.175.934a21.279,21.279,0,0,0,3.175-.934" transform="translate(-122.393 -26.566)" fill="#1a1311" fill-rule="evenodd"/>
    <path id="Path_10" data-name="Path 10" d="M164.783,35.078c.09.483-2.575,2.33-3.175.934A21.279,21.279,0,0,0,164.783,35.078Z" transform="translate(-122.393 -26.566)" fill="none" stroke="#1a1311" stroke-width="0.77"/>
    <path id="Path_11" data-name="Path 11" d="M146.218,48.53a32.289,32.289,0,0,0,3.561-1.16q.569-.219,1.127-.447a1.48,1.48,0,0,0,1.114-.46A1.629,1.629,0,0,0,153.131,46c.371.074.742-.282,1.117-.457.005-.372-.15-.8-.4-.887-.253-.368-.6-.182-.991-.175a3.518,3.518,0,0,0-1.2.064,1.427,1.427,0,0,1-1.031-.173.992.992,0,0,1-.483-.883c.436-.08.872.248,1.3-.156a3.375,3.375,0,0,0,1.226-.365c.39-.262.758-.019,1.094-.552.336-.359.639-.452.9-.714a2.972,2.972,0,0,0,.9-2.883c-.624.729-1.132,1.576-1.756,2.305a6.327,6.327,0,0,1-.671.683,3.744,3.744,0,0,1-1.094-.215,1.328,1.328,0,0,1-.492-.821,1.86,1.86,0,0,1,.092-1.018c2.459,1.439,3.629-3.161,5.976-.747.042.145.005.368.187.373a6.706,6.706,0,0,1-2.428,2.428c.628.427,1.993-1.333,2.8-.187a3.335,3.335,0,0,1-1.667,1.321c-.339.159-.686.309-1.011.483a1.651,1.651,0,0,0-.87.624c.281.172.6.543.939.46a3.052,3.052,0,0,0,1.06-.147c.362-.1.727-.233,1.076-.321a2.126,2.126,0,0,1,.987-.062,1.442,1.442,0,0,1,.793.63c-.206.329-.461.547-.741.511a5.2,5.2,0,0,1-.9.132,6.5,6.5,0,0,0-.918.091c-.295-.029-.57.272-.805.386v1.307a1.363,1.363,0,0,0,.914.533c.365-.046.767.254,1.131.317a.943.943,0,0,1,.9.546,1.661,1.661,0,0,1,.228,1.219,1.3,1.3,0,0,1-.875-.339c-.259.079-.491-.255-.716-.5a3.992,3.992,0,0,1-.668-.546c-.227-.082-.464-.538-.73-.484a6.685,6.685,0,0,1,.008,1.54A5.092,5.092,0,0,1,156,50.8a4.552,4.552,0,0,1-.575,1.188,1.8,1.8,0,0,1-.773.668c-.284.348-.591.125-.91-.081a10.98,10.98,0,0,1-.984-1.059c.222-.307.5-.124.8-.1s.605.264.88-.083V47.97a1.985,1.985,0,0,0-.957.524,4.059,4.059,0,0,0-.685.909c-.2.3-.371.839-.542,1.039-.172.115-.341.608-.53.914-.189.355-.4.573-.648.535-.406-.073-.554-.582-.573-.757a2.646,2.646,0,0,1,.2-1.083,2.528,2.528,0,0,0,.19-.774,1.017,1.017,0,0,0,1.057-.3,5.381,5.381,0,0,0,.861-.493c.268-.183.524-.378.789-.565a6.247,6.247,0,0,1,.841-.513,1.386,1.386,0,0,0-.012-.548,1.037,1.037,0,0,0-.174-.386c-.394.14-.77.267-1.137.4a8.126,8.126,0,0,1-1.074.608c-1.761,1.11-3.428,2.511-5.818,1.238Z" transform="translate(-110.737 -29)" fill="#1a1311" fill-rule="evenodd"/>
    <path id="Path_12" data-name="Path 12" d="M146.218,48.53a32.289,32.289,0,0,0,3.561-1.16q.569-.219,1.127-.447a1.48,1.48,0,0,0,1.114-.46A1.629,1.629,0,0,0,153.131,46c.371.074.742-.282,1.117-.457.005-.372-.15-.8-.4-.887-.253-.368-.6-.182-.991-.175a3.518,3.518,0,0,0-1.2.064,1.427,1.427,0,0,1-1.031-.173.992.992,0,0,1-.483-.883c.436-.08.872.248,1.3-.156a3.375,3.375,0,0,0,1.226-.365c.39-.262.758-.019,1.094-.552.336-.359.639-.452.9-.714a2.972,2.972,0,0,0,.9-2.883c-.624.729-1.132,1.576-1.756,2.305a6.327,6.327,0,0,1-.671.683,3.744,3.744,0,0,1-1.094-.215,1.328,1.328,0,0,1-.492-.821,1.86,1.86,0,0,1,.092-1.018c2.459,1.439,3.629-3.161,5.976-.747.042.145.005.368.187.373a6.706,6.706,0,0,1-2.428,2.428c.628.427,1.993-1.333,2.8-.187a3.335,3.335,0,0,1-1.667,1.321c-.339.159-.686.309-1.011.483a1.651,1.651,0,0,0-.87.624c.281.172.6.543.939.46a3.052,3.052,0,0,0,1.06-.147c.362-.1.727-.233,1.076-.321a2.126,2.126,0,0,1,.987-.062,1.442,1.442,0,0,1,.793.63c-.206.329-.461.547-.741.511a5.2,5.2,0,0,1-.9.132,6.5,6.5,0,0,0-.918.091c-.295-.029-.57.272-.805.386v1.307a1.363,1.363,0,0,0,.914.533c.365-.046.767.254,1.131.317a.943.943,0,0,1,.9.546,1.661,1.661,0,0,1,.228,1.219,1.3,1.3,0,0,1-.875-.339c-.259.079-.491-.255-.716-.5a3.992,3.992,0,0,1-.668-.546c-.227-.082-.464-.538-.73-.484a6.685,6.685,0,0,1,.008,1.54A5.092,5.092,0,0,1,156,50.8a4.552,4.552,0,0,1-.575,1.188,1.8,1.8,0,0,1-.773.668c-.284.348-.591.125-.91-.081a10.98,10.98,0,0,1-.984-1.059c.222-.307.5-.124.8-.1s.605.264.88-.083V47.97a1.985,1.985,0,0,0-.957.524,4.059,4.059,0,0,0-.685.909c-.2.3-.371.839-.542,1.039-.172.115-.341.608-.53.914-.189.355-.4.573-.648.535-.406-.073-.554-.582-.573-.757a2.646,2.646,0,0,1,.2-1.083,2.528,2.528,0,0,0,.19-.774,1.017,1.017,0,0,0,1.057-.3,5.381,5.381,0,0,0,.861-.493c.268-.183.524-.378.789-.565a6.247,6.247,0,0,1,.841-.513,1.386,1.386,0,0,0-.012-.548,1.037,1.037,0,0,0-.174-.386c-.394.14-.77.267-1.137.4a8.126,8.126,0,0,1-1.074.608c-1.761,1.11-3.428,2.511-5.818,1.238Z" transform="translate(-110.737 -29)" fill="none" stroke="#1a1311" stroke-width="0.77"/>
    <path id="Path_13" data-name="Path 13" d="M158.694,135.082v-.276a1.751,1.751,0,0,0,.469-.052.16.16,0,0,0,.069-.085,2.3,2.3,0,0,0,.045-.555q.017-.788.018-1.189l-.007-1.388a2.865,2.865,0,0,0-.036-.637.135.135,0,0,0-.062-.072,1.888,1.888,0,0,0-.5-.076v-.276q.513.017.76.017.273,0,.62-.017.758.967,1.714,2.1.636.756,1.1,1.25v-1.3q0-.74-.016-1.277a1.2,1.2,0,0,0-.053-.392.113.113,0,0,0-.072-.056,4.083,4.083,0,0,0-.46-.046v-.276q.357.017.711.017.485,0,.878-.017v.276a2.159,2.159,0,0,0-.441.053.173.173,0,0,0-.068.046.2.2,0,0,0-.039.076,3.073,3.073,0,0,0-.027.505l-.012,1.313-.007,1.323q0,.532.023,1.064l-.043.046q-.4-.073-.564-.1-.844-.935-2.039-2.348-.6-.715-.975-1.2v1.276q0,.522.016,1.256a2.841,2.841,0,0,0,.046.623.1.1,0,0,0,.049.056,1.85,1.85,0,0,0,.473.065v.276q-.53-.023-.759-.023-.19,0-.814.023" transform="translate(-120.186 -98.815)" fill="#1a1311"/>
    <path id="Path_14" data-name="Path 14" d="M189.557,138.854l.095.1-.147.314a1.894,1.894,0,0,1-.507.22,2.191,2.191,0,0,1-.576.074,1.517,1.517,0,0,1-1.128-.416,1.588,1.588,0,0,1-.412-1.168,2.2,2.2,0,0,1,.121-.789.944.944,0,0,1,.323-.42,3.683,3.683,0,0,1,.519-.319,1.389,1.389,0,0,1,.645-.151,1.318,1.318,0,0,1,.89.3,1.21,1.21,0,0,1,.351.969c0,.055,0,.138-.013.25l-.537.1q-.249.016-.721.017h-.711a1.319,1.319,0,0,0,.338.852,1,1,0,0,0,.735.287,1.3,1.3,0,0,0,.371-.054,1.65,1.65,0,0,0,.364-.16m-1.829-1.273q.3.026.591.026.259,0,.545-.026l0-.155a.951.951,0,0,0-.148-.591.484.484,0,0,0-.4-.186.528.528,0,0,0-.305.087.519.519,0,0,0-.191.245,2.389,2.389,0,0,0-.1.6" transform="translate(-141.533 -103.221)" fill="#1a1311"/>
    <path id="Path_15" data-name="Path 15" d="M204.773,136.585v-.269q.407.023,1.031.023.453,0,.811-.023v.269l-.213.01a.493.493,0,0,0-.215.033.1.1,0,0,0-.044.092q0,.036.115.492l.322,1.185.657-1.45q.226-.5.308-.72h.348q.223.615.929,2.17l.292-.877a4.552,4.552,0,0,0,.22-.784.113.113,0,0,0-.062-.108,2.033,2.033,0,0,0-.41-.043v-.269q.466.016.725.016.282,0,.64-.016v.269a.944.944,0,0,0-.315.043.243.243,0,0,0-.079.092,11.6,11.6,0,0,0-.443,1.165q-.25.723-.5,1.553h-.538q-.368-.937-.9-2.068-.571,1.167-.922,2.068h-.542q-.141-.6-.433-1.61t-.341-1.108a.192.192,0,0,0-.069-.079,1.226,1.226,0,0,0-.374-.056" transform="translate(-155.083 -103.17)" fill="#1a1311"/>
    <path id="Path_16" data-name="Path 16" d="M246.106,135.082v-.276a2.458,2.458,0,0,0,.39-.033.258.258,0,0,0,.135-.054.265.265,0,0,0,.059-.14q.023-.141.039-1.036.01-.636.01-1.3,0-1.3-.008-1.327c-.006-.017-.083-.025-.232-.025q-.458,0-.786.026a.833.833,0,0,0-.216.033.1.1,0,0,0-.038.058q-.013.041-.056.576h-.282q.007-.629-.033-1.083l.036-.027q1.034.05,2.012.049t2.183-.049l.036.053q-.062.451-.089,1.057h-.273a3.032,3.032,0,0,0-.059-.6.149.149,0,0,0-.105-.05,7.981,7.981,0,0,0-1.044-.043c-.044,0-.07.007-.079.02a.588.588,0,0,0-.013.174l-.02,2.208q0,.959.017,1.178t.079.264a2.4,2.4,0,0,0,.518.069v.276q-.483-.023-1.026-.023-.713,0-1.157.023" transform="translate(-185.615 -98.815)" fill="#1a1311"/>
    <path id="Path_17" data-name="Path 17" d="M272.058,139.219v.269l-.254-.01q-.2-.01-.4-.01-.309,0-.586.02l-.033-.036.033-.45-.685.513a1.469,1.469,0,0,1-.324.042.692.692,0,0,1-.537-.207.863.863,0,0,1-.19-.6.822.822,0,0,1,.259-.689,3.831,3.831,0,0,1,1.478-.469,1,1,0,0,0-.134-.564.649.649,0,0,0-.556-.241.823.823,0,0,0-.182.022.881.881,0,0,0-.188.067l-.147.351-.226-.056.007-.148,0-.145,0-.131a4.532,4.532,0,0,1,.722-.391,1.338,1.338,0,0,1,.447-.059,1.465,1.465,0,0,1,.63.116.774.774,0,0,1,.355.317,1.232,1.232,0,0,1,.112.586q0,.161-.013.576t-.013.687a2.979,2.979,0,0,0,.023.5.128.128,0,0,0,.064.082,1.323,1.323,0,0,0,.35.059m-1.241-1.349a1.936,1.936,0,0,0-.749.272.489.489,0,0,0-.173.394.436.436,0,0,0,.111.316.373.373,0,0,0,.281.116.754.754,0,0,0,.53-.293Z" transform="translate(-203.786 -103.222)" fill="#1a1311"/>
    <path id="Path_18" data-name="Path 18" d="M287.8,134.59v-.269a1.533,1.533,0,0,0,.429-.046q.057-.033.074-.184.026-.207.026-.914,0-.306-.01-.565l-.01-.384a.407.407,0,0,0-.041-.235.359.359,0,0,0-.222-.051l-.246-.009v-.253a4.071,4.071,0,0,0,1.3-.282l.082.066q-.049.629-.049,1.829a8.3,8.3,0,0,0,.023.839.189.189,0,0,0,.06.132,1.7,1.7,0,0,0,.429.059v.269q-.592-.019-.916-.02-.174,0-.932.02m.913-4.763a.51.51,0,1,1-.363.15.491.491,0,0,1,.363-.15" transform="translate(-217.962 -98.323)" fill="#1a1311"/>
    <path id="Path_19" data-name="Path 19" d="M301.876,136.876v-.253a5.3,5.3,0,0,0,.953-.154l.35-.108c.031,0,.046.026.046.077s0,.1-.011.178l-.009.3.532-.42a.9.9,0,0,1,.558-.135,1.186,1.186,0,0,1,.89.343,1.268,1.268,0,0,1,.335.925,2.013,2.013,0,0,1-.084.575,1.621,1.621,0,0,1-.2.45,1.928,1.928,0,0,1-.4.391q-.5.4-.591.453a.881.881,0,0,1-.45.108,1.254,1.254,0,0,1-.3-.036,1.388,1.388,0,0,1-.292-.108l.013,1a.816.816,0,0,0,.075.421,1.015,1.015,0,0,0,.486.061v.269q-.509-.02-.886-.02-.723,0-1.018.02v-.269a1.443,1.443,0,0,0,.4-.04.118.118,0,0,0,.049-.062,3.937,3.937,0,0,0,.043-.673q.02-.834.02-1.241l-.007-1.3a3.338,3.338,0,0,0-.036-.656.121.121,0,0,0-.049-.062,1.541,1.541,0,0,0-.42-.03m1.33,1.946a1.064,1.064,0,0,0,.322.283.769.769,0,0,0,.377.1.661.661,0,0,0,.553-.29,1.592,1.592,0,0,0,.215-.935,1.219,1.219,0,0,0-.22-.788.693.693,0,0,0-.561-.268.79.79,0,0,0-.343.082,1.328,1.328,0,0,0-.343.247Z" transform="translate(-228.623 -103.272)" fill="#1a1311"/>
    <path id="Path_20" data-name="Path 20" d="M326.8,138.854l.095.1-.147.314a1.893,1.893,0,0,1-.507.22,2.191,2.191,0,0,1-.576.074,1.517,1.517,0,0,1-1.128-.416,1.588,1.588,0,0,1-.412-1.168,2.2,2.2,0,0,1,.121-.789.944.944,0,0,1,.323-.42,3.682,3.682,0,0,1,.519-.319,1.389,1.389,0,0,1,.645-.151,1.317,1.317,0,0,1,.89.3,1.21,1.21,0,0,1,.351.969c0,.055,0,.138-.013.25l-.538.1q-.249.016-.721.017h-.711a1.319,1.319,0,0,0,.338.852,1,1,0,0,0,.735.287,1.3,1.3,0,0,0,.371-.054,1.649,1.649,0,0,0,.364-.16m-1.829-1.273q.3.026.591.026.259,0,.545-.026l0-.155a.951.951,0,0,0-.148-.591.484.484,0,0,0-.4-.186.528.528,0,0,0-.305.087.519.519,0,0,0-.19.245,2.388,2.388,0,0,0-.1.6" transform="translate(-245.473 -103.221)" fill="#1a1311"/>
    <path id="Path_21" data-name="Path 21" d="M342.759,134.59v-.269a1.534,1.534,0,0,0,.429-.046c.038-.022.063-.083.074-.184q.026-.207.026-.914,0-.306-.01-.565l-.009-.384a.409.409,0,0,0-.041-.235.36.36,0,0,0-.222-.051l-.247-.009v-.253a4.069,4.069,0,0,0,1.3-.282l.082.066q-.05.629-.049,1.829a8.24,8.24,0,0,0,.023.839.189.189,0,0,0,.06.132,1.709,1.709,0,0,0,.429.059v.269q-.592-.019-.916-.02-.173,0-.933.02m.913-4.763a.51.51,0,1,1-.363.15.5.5,0,0,1,.363-.15" transform="translate(-259.586 -98.323)" fill="#1a1311"/>
    <path id="Path_22" data-name="Path 22" d="M373.42,134.176l.082.076a3.214,3.214,0,0,0-.151.335,3.152,3.152,0,0,1-.734.284,3.538,3.538,0,0,1-.812.084,3.184,3.184,0,0,1-1.454-.3,2.169,2.169,0,0,1-.914-.85,2.445,2.445,0,0,1-.32-1.257,2.148,2.148,0,0,1,.724-1.672,2.877,2.877,0,0,1,2-.652,4.667,4.667,0,0,1,.839.076,4.759,4.759,0,0,1,.826.23l.023.049a1.877,1.877,0,0,0-.084.341q-.044.286-.067.709H373.1a4.3,4.3,0,0,0-.039-.569.631.631,0,0,0-.18-.174,1.287,1.287,0,0,0-.435-.2,2.227,2.227,0,0,0-.605-.077,1.648,1.648,0,0,0-1.251.486,1.879,1.879,0,0,0-.464,1.352,2.1,2.1,0,0,0,.558,1.52,1.865,1.865,0,0,0,1.415.538,2.817,2.817,0,0,0,.652-.072,3.254,3.254,0,0,0,.671-.253" transform="translate(-279.548 -98.621)" fill="#1a1311"/>
    <path id="Path_23" data-name="Path 23" d="M393.881,134.59v-.269a1.529,1.529,0,0,0,.428-.046q.057-.033.074-.184.026-.207.026-.914,0-.306-.01-.565l-.01-.384a.409.409,0,0,0-.041-.235.36.36,0,0,0-.222-.051l-.246-.009v-.253a4.072,4.072,0,0,0,1.3-.282l.082.066q-.049.629-.049,1.829a8.319,8.319,0,0,0,.023.839.19.19,0,0,0,.06.132,1.708,1.708,0,0,0,.429.059v.269q-.591-.019-.916-.02-.173,0-.932.02m.913-4.763a.51.51,0,1,1-.363.15.49.49,0,0,1,.363-.15" transform="translate(-298.303 -98.323)" fill="#1a1311"/>
    <path id="Path_24" data-name="Path 24" d="M407.552,133.468l.437-.286q-.008-.581-.033-1.018a5.645,5.645,0,0,0,.847-.335l.1.075a11.425,11.425,0,0,0-.1,1.277,1.723,1.723,0,0,0,.3.026,3.553,3.553,0,0,0,.6-.046l.029.02-.029.118a3.057,3.057,0,0,0-.072.338q-.384-.026-.565-.026a2.58,2.58,0,0,0-.263.013c0,.222-.006.416-.006.586a5.881,5.881,0,0,0,.066,1.256q.065.151.312.151a.814.814,0,0,0,.156-.016,1.742,1.742,0,0,0,.179-.046l.056.124q-.2.22-.384.456c-.081.013-.156.023-.223.029s-.13.01-.187.01a1,1,0,0,1-.461-.1.617.617,0,0,1-.269-.247.951.951,0,0,1-.084-.45q0-.158.017-.828.016-.588.017-.93l-.168-.007a2.346,2.346,0,0,0-.269.02Z" transform="translate(-308.656 -99.84)" fill="#1a1311"/>
    <path id="Path_25" data-name="Path 25" d="M421.507,136.862v-.269q.755.019.965.02.292,0,.824-.02v.269a1.25,1.25,0,0,0-.363.044.108.108,0,0,0-.057.1,5.913,5.913,0,0,0,.322.909l.358.905.305-.715a5.833,5.833,0,0,0,.411-1.109.1.1,0,0,0-.057-.1,1.331,1.331,0,0,0-.353-.041v-.269l.207.008q.332.011.44.011t.617-.02v.269a.606.606,0,0,0-.263.049.213.213,0,0,0-.075.072q-.053.072-.414.905l-.611,1.4-.568,1.292a2.306,2.306,0,0,1-.346.556,1.01,1.01,0,0,1-.333.236,1.021,1.021,0,0,1-.4.077,1.165,1.165,0,0,1-.473-.111,5.228,5.228,0,0,0,.115-.631l.089-.029a.591.591,0,0,0,.45.213.485.485,0,0,0,.358-.141,3.445,3.445,0,0,0,.44-.817l-.732-1.856-.4-1a.346.346,0,0,0-.113-.159.982.982,0,0,0-.333-.058" transform="translate(-319.225 -103.448)" fill="#1a1311"/>
    <path id="Path_26" data-name="Path 26" d="M458,133.273v-.266q.6.016,1.067.016.433,0,.935-.016v.21a2.14,2.14,0,0,0-.275.108,4.93,4.93,0,0,0-.04.565q0,.167.04.663a7.4,7.4,0,0,1-1.088.317,4.868,4.868,0,0,1-.908.083,2.825,2.825,0,0,1-1.984-.658,2.391,2.391,0,0,1,.015-3.429,3.077,3.077,0,0,1,2.1-.647,5.49,5.49,0,0,1,.926.075,4.389,4.389,0,0,1,.844.23l.029.049a7.1,7.1,0,0,0-.141,1.037h-.276a3.674,3.674,0,0,0-.043-.551,1.282,1.282,0,0,0-.54-.364,2.257,2.257,0,0,0-.78-.122,1.792,1.792,0,0,0-1.344.512,1.922,1.922,0,0,0-.5,1.4,2.187,2.187,0,0,0,.527,1.529,1.685,1.685,0,0,0,1.3.58,2.21,2.21,0,0,0,.873-.2,4.725,4.725,0,0,0,.026-.479,1.262,1.262,0,0,0-.059-.558,2.353,2.353,0,0,0-.7-.089" transform="translate(-344.616 -98.621)" fill="#1a1311"/>
    <path id="Path_27" data-name="Path 27" d="M482.935,137.927a1.745,1.745,0,0,1,2.823-1.262,1.586,1.586,0,0,1,.377,1.173,1.747,1.747,0,0,1-.435,1.272,1.61,1.61,0,0,1-1.209.447,1.525,1.525,0,0,1-1.159-.417,1.694,1.694,0,0,1-.4-1.213m.909-.225a2.56,2.56,0,0,0,.223,1.247.57.57,0,0,0,.522.286.537.537,0,0,0,.471-.243,1.68,1.68,0,0,0,.166-.885,2.572,2.572,0,0,0-.2-1.221.57.57,0,0,0-.522-.27.558.558,0,0,0-.481.247,1.5,1.5,0,0,0-.176.839" transform="translate(-365.747 -103.221)" fill="#1a1311"/>
    <path id="Path_28" data-name="Path 28" d="M502.273,136.862v-.269l.844.02q.427,0,.912-.02v.269a1.444,1.444,0,0,0-.363.036.091.091,0,0,0-.057.089.7.7,0,0,0,.033.154l.2.548.437,1.134.43-1.006a3.913,3.913,0,0,0,.3-.824.093.093,0,0,0-.054-.093,1.656,1.656,0,0,0-.379-.038v-.269q.43.019.7.02.292,0,.627-.02v.269a.618.618,0,0,0-.328.067,4.485,4.485,0,0,0-.379.732q-.314.674-.888,2.053h-.578q-.216-.594-.65-1.684-.285-.712-.384-.932a.453.453,0,0,0-.125-.181.75.75,0,0,0-.292-.056" transform="translate(-380.392 -103.448)" fill="#1a1311"/>
    <path id="Path_29" data-name="Path 29" d="M526.345,138.854l.095.1-.147.314a1.89,1.89,0,0,1-.507.22,2.189,2.189,0,0,1-.576.074,1.518,1.518,0,0,1-1.128-.416,1.588,1.588,0,0,1-.412-1.168,2.2,2.2,0,0,1,.122-.789.944.944,0,0,1,.323-.42,3.7,3.7,0,0,1,.519-.319,1.39,1.39,0,0,1,.645-.151,1.318,1.318,0,0,1,.89.3,1.21,1.21,0,0,1,.351.969c0,.055,0,.138-.013.25l-.537.1q-.249.016-.721.017h-.711a1.321,1.321,0,0,0,.338.852,1,1,0,0,0,.735.287,1.306,1.306,0,0,0,.371-.054,1.653,1.653,0,0,0,.364-.16m-1.829-1.273q.3.026.591.026.259,0,.545-.026l0-.155a.953.953,0,0,0-.148-.591.484.484,0,0,0-.4-.186.529.529,0,0,0-.306.087.516.516,0,0,0-.19.245,2.4,2.4,0,0,0-.1.6" transform="translate(-396.597 -103.221)" fill="#1a1311"/>
    <path id="Path_30" data-name="Path 30" d="M541.737,139.488v-.269a1.765,1.765,0,0,0,.381-.04.142.142,0,0,0,.062-.062,1.109,1.109,0,0,0,.043-.348q.013-.48.013-.874,0-.759-.02-.9a.158.158,0,0,0-.059-.117,1.356,1.356,0,0,0-.42-.048v-.253a4.876,4.876,0,0,0,.946-.156l.337-.126c.031,0,.046.021.046.062l0,.046q-.011.207-.01.594a4.857,4.857,0,0,0,.371-.407.919.919,0,0,1,.263-.24.746.746,0,0,1,.512-.02q-.029.329-.04.894l-.148.053a.4.4,0,0,0-.4-.231.562.562,0,0,0-.338.1.453.453,0,0,0-.181.234,4.447,4.447,0,0,0-.026.672q0,.833.023.971a.17.17,0,0,0,.062.125,1.449,1.449,0,0,0,.5.069v.269l-.368-.01q-.351-.009-.607-.01t-.565.01Z" transform="translate(-410.28 -103.221)" fill="#1a1311"/>
    <path id="Path_31" data-name="Path 31" d="M557.993,139.488v-.269a1.152,1.152,0,0,0,.4-.058.245.245,0,0,0,.056-.169q.019-.332.02-1.17,0-.414-.013-.713a.7.7,0,0,0-.026-.217.1.1,0,0,0-.052-.039,2.824,2.824,0,0,0-.388-.023v-.253a3.127,3.127,0,0,0,.555-.076,3.956,3.956,0,0,0,.634-.176l.089-.03c.031,0,.046.025.046.075l0,.03q-.01.092-.009.473l.508-.427a.525.525,0,0,1,.2-.112,1.35,1.35,0,0,1,.351-.039,1.186,1.186,0,0,1,.569.12.744.744,0,0,1,.325.332,1.589,1.589,0,0,1,.1.66q0,.2-.01.457-.017.533-.017.921a.877.877,0,0,0,.036.306.141.141,0,0,0,.073.079,2.178,2.178,0,0,0,.36.05v.269l-.4-.013-.259-.007-.676.02-.036-.043a9.48,9.48,0,0,0,.085-1.282,2.975,2.975,0,0,0-.1-1.029.493.493,0,0,0-.479-.25.666.666,0,0,0-.388.114.55.55,0,0,0-.213.242,1.288,1.288,0,0,0-.023.333q0,1.192.009,1.364c.007.115.025.186.056.212a1.1,1.1,0,0,0,.44.069v.269q-.572-.02-.965-.02-.233,0-.85.02" transform="translate(-422.592 -103.221)" fill="#1a1311"/>
    <path id="Path_32" data-name="Path 32" d="M579.971,139.488v-.269a1.285,1.285,0,0,0,.386-.044.157.157,0,0,0,.06-.114,6.465,6.465,0,0,0,.026-.762,12.771,12.771,0,0,0-.033-1.371q-.026-.089-.228-.092l-.212-.006v-.253a6.093,6.093,0,0,0,.687-.108,3.352,3.352,0,0,0,.514-.158.224.224,0,0,1,.069-.016c.031,0,.046.027.046.082s0,.1-.008.167c0,.031-.005.085-.005.164v.118l.538-.4a.861.861,0,0,1,.518-.128,1,1,0,0,1,.557.136.842.842,0,0,1,.314.435l.558-.443a.707.707,0,0,1,.45-.128,1.009,1.009,0,0,1,.758.253,1.161,1.161,0,0,1,.243.822l-.007.273q-.013.454-.013.809a3.75,3.75,0,0,0,.03.609.174.174,0,0,0,.067.107,1.245,1.245,0,0,0,.37.051v.269q-.408-.02-.712-.02t-.611.02l-.04-.063a11.481,11.481,0,0,0,.085-1.38,2.385,2.385,0,0,0-.124-1,.472.472,0,0,0-.436-.2.637.637,0,0,0-.359.1.5.5,0,0,0-.2.234,2.682,2.682,0,0,0-.033.576q0,.869.023,1.2a.269.269,0,0,0,.061.189,1.2,1.2,0,0,0,.419.068v.269q-.43-.02-.844-.02-.515,0-.926.02v-.269q.325,0,.381-.094a2.978,2.978,0,0,0,.056-.825,9.368,9.368,0,0,0-.033-1.037.485.485,0,0,0-.159-.309.53.53,0,0,0-.349-.105.6.6,0,0,0-.3.076.655.655,0,0,0-.227.214.413.413,0,0,0-.053.234l0,.125q.01.092.01.517l0,.388a5.744,5.744,0,0,0,.02.662.132.132,0,0,0,.054.1,1.3,1.3,0,0,0,.359.059v.269q-.393-.02-.861-.02-.164,0-.885.02" transform="translate(-439.236 -103.221)" fill="#1a1311"/>
    <path id="Path_33" data-name="Path 33" d="M612.483,138.854l.095.1-.147.314a1.89,1.89,0,0,1-.507.22,2.189,2.189,0,0,1-.576.074,1.518,1.518,0,0,1-1.128-.416,1.588,1.588,0,0,1-.412-1.168,2.2,2.2,0,0,1,.122-.789.943.943,0,0,1,.323-.42,3.7,3.7,0,0,1,.519-.319,1.39,1.39,0,0,1,.645-.151,1.318,1.318,0,0,1,.89.3,1.21,1.21,0,0,1,.351.969c0,.055,0,.138-.013.25l-.537.1q-.249.016-.721.017h-.711a1.321,1.321,0,0,0,.338.852,1,1,0,0,0,.735.287,1.305,1.305,0,0,0,.371-.054,1.654,1.654,0,0,0,.365-.16m-1.829-1.273q.3.026.591.026.259,0,.545-.026l0-.155a.953.953,0,0,0-.148-.591.484.484,0,0,0-.4-.186.529.529,0,0,0-.305.087.515.515,0,0,0-.19.245,2.4,2.4,0,0,0-.1.6" transform="translate(-461.832 -103.221)" fill="#1a1311"/>
    <path id="Path_34" data-name="Path 34" d="M628.362,139.488v-.269a1.152,1.152,0,0,0,.4-.058.246.246,0,0,0,.056-.169q.019-.332.02-1.17,0-.414-.013-.713a.7.7,0,0,0-.026-.217.1.1,0,0,0-.052-.039,2.824,2.824,0,0,0-.388-.023v-.253a3.125,3.125,0,0,0,.554-.076,3.955,3.955,0,0,0,.634-.176l.089-.03c.031,0,.046.025.046.075l0,.03c-.007.061-.009.219-.009.473l.508-.427a.528.528,0,0,1,.2-.112,1.351,1.351,0,0,1,.351-.039,1.185,1.185,0,0,1,.569.12.744.744,0,0,1,.325.332,1.589,1.589,0,0,1,.1.66q0,.2-.01.457-.017.533-.017.921a.879.879,0,0,0,.036.306.142.142,0,0,0,.074.079,2.178,2.178,0,0,0,.36.05v.269l-.4-.013-.259-.007-.676.02-.036-.043a9.48,9.48,0,0,0,.085-1.282,2.975,2.975,0,0,0-.1-1.029.493.493,0,0,0-.479-.25.666.666,0,0,0-.388.114.551.551,0,0,0-.213.242,1.293,1.293,0,0,0-.023.333q0,1.192.009,1.364c.007.115.025.186.056.212a1.1,1.1,0,0,0,.44.069v.269q-.571-.02-.965-.02-.233,0-.85.02" transform="translate(-475.885 -103.221)" fill="#1a1311"/>
    <path id="Path_35" data-name="Path 35" d="M649.812,133.468l.437-.286q-.008-.581-.033-1.018a5.644,5.644,0,0,0,.847-.335l.1.075a11.456,11.456,0,0,0-.1,1.277,1.723,1.723,0,0,0,.3.026,3.553,3.553,0,0,0,.6-.046l.03.02-.03.118a3.063,3.063,0,0,0-.072.338q-.384-.026-.565-.026a2.58,2.58,0,0,0-.263.013c0,.222-.006.416-.006.586a5.883,5.883,0,0,0,.066,1.256q.065.151.312.151a.814.814,0,0,0,.156-.016,1.742,1.742,0,0,0,.179-.046l.056.124q-.2.22-.384.456c-.081.013-.156.023-.223.029s-.13.01-.187.01a1,1,0,0,1-.461-.1.617.617,0,0,1-.269-.247.952.952,0,0,1-.084-.45q0-.158.017-.828.016-.588.016-.93l-.168-.007a2.346,2.346,0,0,0-.269.02Z" transform="translate(-492.13 -99.84)" fill="#1a1311"/>
    <path id="Path_36" data-name="Path 36" d="M9.375,10.9l2.311.487-.121.973,2.371.426L16.429.564S11.807-1.261,9.375,1.658V5.186h.242A3.148,3.148,0,0,1,13.389,3.24L12.111,9.2,9.375,8.652ZM8.523,3.118S3.536,3.057,2.259,9.565L9.375,10.9V8.652L5.361,7.862C5.908,5.49,8.584,5.186,9.375,5.186V1.658a5.4,5.4,0,0,0-.851,1.46" transform="translate(-1.711 -0.001)" fill="#ebb700" fill-rule="evenodd"/>
    <path id="Path_37" data-name="Path 37" d="M9.854,47.907l-.243.912-3.893-.791V50.34l3.406.73L8.029,57.03a3.318,3.318,0,0,1-2.311-1.581V59.4a8.831,8.831,0,0,0,4.136,1.277l2.371-12.346Zm-4.136.122L.243,46.934c-1.338,6.508,3.285,8.332,3.285,8.332A4.648,4.648,0,0,0,5.718,59.4V55.449a4.074,4.074,0,0,1-.426-1.643s-3.466-1.277-2.979-4.136l3.405.669Z" transform="translate(0 -35.545)" fill="#5ca13c" fill-rule="evenodd"/>
    <path id="Path_38" data-name="Path 38" d="M66.658,9.427a4.721,4.721,0,0,0-2.25-4.2V9.366a3.565,3.565,0,0,1,.364,1.581s3.466,1.277,2.981,4.075l-3.345-.669V16.6l5.534,1.156c1.338-6.508-3.284-8.332-3.284-8.332m-2.25-4.2a9.643,9.643,0,0,0-4.136-1.156L57.9,16.361l2.432.547.243-1.034,3.832.73v-2.25L61,13.684l1.034-5.96a3.131,3.131,0,0,1,2.372,1.642Z" transform="translate(-43.85 -3.086)" fill="#cf3717" fill-rule="evenodd"/>
    <path id="Path_39" data-name="Path 39" d="M54.989,65.773a4.092,4.092,0,0,0,.79-1.338s4.988.061,6.2-6.508l-6.994-1.338V58.9l4.014.79c-.487,2.311-3.1,2.615-4.014,2.676Zm-2.432-9.609.182-.912L50.306,54.7,47.873,66.99s4.743,1.825,7.116-1.216V62.367h-.3a3.069,3.069,0,0,1-3.71,1.946l1.216-5.96,2.8.548V56.589Z" transform="translate(-36.256 -41.43)" fill="#005a9f" fill-rule="evenodd"/>
    <path id="Path_40" data-name="Path 40" d="M1,110.814a4.7,4.7,0,0,1,5.352,3.041,12.482,12.482,0,0,1,1.521,4.136,6.591,6.591,0,0,1-3.528-3.527A9.88,9.88,0,0,0,1,110.814" transform="translate(-0.759 -83.855)" fill="#908c86" fill-rule="evenodd"/>
    <path id="Path_41" data-name="Path 41" d="M36.642,107.086s-3.893,4.014-2.069,7.177c0,0,.852.609,1.521-.669,0,0-1.4,0-.912-1.764a15.454,15.454,0,0,1,1.46-4.744" transform="translate(-25.815 -81.101)" fill="#908c86" fill-rule="evenodd"/>
    <path id="Path_42" data-name="Path 42" d="M35.343,130.277s6.324-8.636,13.927-5.292a46.524,46.524,0,0,0-5.778,2.129s-4.2,3.163-8.149,3.163" transform="translate(-26.767 -94.073)" fill="#908c86" fill-rule="evenodd"/>
  </g>
</svg>
